<svg id="euMaAvkBJis1" xmlns="http://www.w3.org/2000/svg" xmlns:xlink="http://www.w3.org/1999/xlink" viewBox="0 0 630.88 586.73334" shape-rendering="geometricPrecision" text-rendering="geometricPrecision"><g transform="matrix(1.33333 0 0-1.33333 0 586.733)"><g transform="matrix(.1 0 0 0.1 0 0)"><path d="M4038.69,2331.73c923.9-533.41,923.89-1398.25-.01-1931.671-923.91-533.407-2421.85-533.418-3345.758-.008-923.902,533.418-923.899,1398.259.012,1931.679c923.906,533.42,2421.856,533.42,3345.756,0" fill="#ededeb"/><path d="M535.199,950.84L142.516,1177.56c-13.868,8-13.868,20.98,0,28.98L2306.77,2456.08c13.87,8,36.35,8,50.21,0l392.7-226.71c13.87-8.01,13.87-20.99,0-28.99L585.418,950.84c-13.867-8.008-36.352-8.008-50.219,0" fill="#dadbd8"/><path d="M1897.27,1305.88l316.19,182.83c32.59,18.81,48.89,43.47,48.9,68.14c0,24.66.13,43.98.13,43.98l-380.51,215.58c-17.38,10.04-31.47,34.44-31.47,54.52v389.83l-552.27-319.13-.02-389.83c0-20.07,14.09-44.48,31.47-54.52l331.52-191.4c65.19-37.63,170.88-37.63,236.06,0" fill="#26b6a6"/><path d="M1779.23,1277.66c-42.71,0-85.43,9.41-118.02,28.22l-307.77,177.69l77.39-44.59v43.79l-31.43,18.2l261.76-151.12c32.6-18.82,75.34-28.23,118.07-28.23c1.8-.01,3.61.01,5.4.05v-43.7v0c40.89.73,81.42,9.81,112.67,27.98l122.75,70.92-122.78-70.99c-32.59-18.81-75.31-28.22-118.04-28.22m30.18,45.53c32.18,3.4,62.95,12.28,87.83,26.63l215.65,124.62-215.59-124.69c-24.91-14.34-55.71-23.25-87.89-26.56m-453.29,205.35c-6.61,6.83-12.09,15.54-15.6,24.61c3.52-9.05,9.01-17.76,15.6-24.61m906.31,60.27c0,4.04,0,7.21,0,9.28.03.6.05,1.21.06,1.81-.01-1.68-.04-5.59-.06-11.09" fill="#0b7465"/><path d="M1430.83,1482.77v-43.79l-101.23,58.33c-17.26,9.99-31.43,34.34-31.43,54.51v389.8l105.21,60.7c2.18-26.72,4.55-54.35,6.73-81.24l-73.78-42.7v-304.57c0-20.17,13.99-44.52,31.44-54.51l63.06-36.53" fill="#26b6a6"/><path d="M1430.83,1438.98l-101.23,58.33c-17.26,9.99-31.43,34.34-31.43,54.51v48.69c12.66,7.31,25.38,14.65,38.14,22.02v-48.79v0v0v0c0-6.61,1.54-13.7,4.21-20.59c3.51-9.07,8.99-17.78,15.6-24.61c3.61-3.74,7.55-6.93,11.67-9.32v0l31.61-18.25l31.43-18.2v-43.79" fill="#093b33"/><path d="M1336.31,1573.74c0-20.07,14.1-44.48,31.48-54.52l293.37-169.37c65.19-37.64,170.89-37.65,236.08-.03l316.35,182.81c65.19,37.61,65.2,98.63.02,136.26l-293.53,169.48c-17.38,10.03-31.48,34.44-31.48,54.51v304.61l-552.29-319.13v-304.62" fill="#26b6a6"/><path d="M1779.23,1321.62c-42.73,0-85.47,9.41-118.07,28.23l-293.37,169.37l63-36.37l553.4,318.46v.04l-64.11,37.02c-17.39,10.03-31.48,34.44-31.48,54.51v48.5v0-48.5c0-20.07,14.1-44.48,31.48-54.51l293.53-169.48c32.59-18.82,48.89-43.48,48.88-68.14c0-.89-.02-1.78-.06-2.66c0,1.75,0,2.71,0,2.71v0v0c0-24.72-16.36-49.43-48.88-68.15l-100.66-58.21-215.65-124.62c-24.88-14.35-55.65-23.23-87.83-26.63-8.19-.84-16.47-1.32-24.78-1.43v-.09c-1.79-.04-3.6-.06-5.4-.05" fill="#06ab91"/><path d="M1430.79,1482.85l-63,36.37c-11.65,6.73-21.83,19.92-27.27,33.93-2.67,6.89-4.21,13.98-4.21,20.59v48.79c181.34,104.69,372.4,215,552.29,318.85v-48.5c0-20.07,14.09-44.48,31.48-54.51l64.11-37.02v-.04l-553.4-318.46" fill="#0b4d42"/><path d="M2262.43,1600.8c0,0,0-19.27,0-43.98c0-24.72-16.36-49.25-48.88-68.15L1897.3,1305.95c-31.25-18.17-71.78-27.25-112.67-27.98v43.79c40.89.55,81.42,10,112.67,27.99l316.25,182.9c32.52,18.72,48.88,43.43,48.88,68.15" fill="#26b6a6"/><path d="M1784.63,1277.97v43.79c40.89.55,81.42,10,112.67,27.99l316.25,182.9c32.52,18.72,48.88,43.43,48.88,68.15c0,0,0-19.27,0-43.98c0-24.72-16.36-49.25-48.88-68.15L1897.3,1305.95c-31.25-18.17-71.78-27.25-112.67-27.98" fill="#14b099"/><path d="M449.563,1153.18c20.382-11.76,54.527-11.13,76.253,1.42C797.328,1311.35,2390.16,2230.95,2661.64,2387.69c21.73,12.54,39.33,43.04,39.33,68.14v1869.46c0,25.09-16.52,54.96-36.9,66.73-20.39,11.77-54.52,11.14-76.25-1.41L452.027,3157.52c-21.73-12.55-39.343-43.06-39.343-68.14l-.028-1869.46c0-25.09,16.524-54.97,36.907-66.74" fill="#26b6a6"/><path d="M486.949,1144.77c11.504.21,23.16,2.52,33.086,6.91v0v0c-4.187-1.68-8.152-2.49-11.797-2.49-12.957,0-21.816,10.24-21.816,28.11v210.25v1659.3c.043,3.08.344,6.26.871,9.48-.512-3.23-.781-6.42-.781-9.52l-.024-1659.2-.004-.01v-210.24v0v0v0v0v0c0-17.8,8.864-28.09,21.77-28.09c2.152,0,4.41.29,6.762.87.043.01.082.02.121.03.004,0,.008,0,.011,0c3.399.86,6.977,2.34,10.676,4.47L2542.65,2319.04v-.05c-149.49-86.3-389.64-224.95-654.05-377.61-179.89-103.85-370.95-214.16-552.29-318.85v0c-12.76-7.37-25.48-14.71-38.14-22.02-354.596-204.72-665.615-384.29-772.354-445.91-10.925-6.31-24.992-9.61-38.867-9.83m5.137,1928.58c1.668,4.23,3.672,8.39,5.961,12.38v0v0l-73.777,42.53c7.113,12.28,16.925,23,27.757,29.26L2587.82,4390.61c11.32,6.54,26,9.84,40.36,9.84c13.2,0,26.12-2.79,35.89-8.43c19.54-11.28,35.53-39.2,36.82-63.6-.97,15.89-9.54,25-21.68,25-5.29,0-11.25-1.72-17.57-5.37L525.855,3114.96c-14.347-8.28-26.894-24.39-33.769-41.61m-77.184,32.39c1.981,7.64,5.207,15.33,9.344,22.48-4.094-7.15-7.336-14.84-9.344-22.48" fill="#06ab91"/><path d="M525.824,1154.64L2661.64,2387.73c21.74,12.54,39.34,43.05,39.34,68.15v1869.45c0,25.1-17.6,35.26-39.34,22.72L525.855,3114.96c-21.734-12.55-39.343-43.06-39.343-68.15l-.028-1869.45c0-25.09,17.614-35.26,39.34-22.72" fill="#26b6a6"/><path d="M525.824,1154.64L2661.64,2387.73c21.74,12.54,39.34,43.05,39.34,68.15v1869.45c0,25.1-17.6,35.26-39.34,22.72L525.855,3114.96c-21.734-12.55-39.343-43.06-39.343-68.15l-.028-1869.45c0-25.09,17.614-35.26,39.34-22.72" fill="#26b6a6"/><path d="M508.254,1149.27c-12.906,0-21.77,10.29-21.77,28.09c0-17.8,8.868-28.09,21.774-28.09c2.148,0,4.41.29,6.758.87-2.352-.58-4.61-.87-6.762-.87m6.883.9c.004,0,.008,0,.011,0-.003,0-.007,0-.011,0m-28.649,237.44l.024,1659.2c0,3.1.269,6.29.781,9.52.93,5.63,2.562,11.39,4.793,17.02c6.875,17.22,19.422,33.33,33.769,41.61L2661.64,4348.05c6.32,3.65,12.28,5.37,17.57,5.37c12.91,0,21.77-10.29,21.77-28.09v-152.28l-73.85-42.7v85.25c0,10.68-5.33,16.85-13.07,16.85-3.18,0-6.76-1.04-10.55-3.23L583.902,3063.2c-13.035-7.53-23.601-25.83-23.601-40.89l-.02-1479.6c0-10.69,5.317-16.86,13.063-16.86c3.176,0,6.758,1.04,10.543,3.22l164.679,95.07v-85.23L486.484,1387.6" fill="#0b7465"/><path d="M520.035,1151.68c-21.805-9.64-51.969-9.27-70.508,1.45-20.351,11.81-36.89,41.61-36.89,66.87v210.25l73.785-42.7v-210.25c0-22.9,14.539-33.26,33.613-25.62" fill="#26b6a6"/><path d="M485.242,1144.75c-13.176,0-26.031,2.78-35.715,8.38-20.351,11.81-36.89,41.61-36.89,66.87v210.25l73.785-42.7v-210.25v0c0-17.87,8.859-28.11,21.816-28.11c3.645,0,7.61.81,11.797,2.49-10.414-4.61-22.738-6.93-34.793-6.93" fill="#093b33"/><path d="M486.484,1387.6v-210.24c0-25.09,17.618-35.26,39.34-22.72L2661.64,2387.73c21.74,12.54,39.34,43.05,39.34,68.15v210.25L486.484,1387.6" fill="#26b6a6"/><path d="M508.258,1149.27c-12.906,0-21.774,10.29-21.774,28.09v210.24l262.082,151.31v-7.31c0-5.97,1.313-11.64,3.539-16.29c1.114-2.43,2.528-4.55,4.153-6.28c1.512-1.82,3.332-3.23,5.258-4.24.605-.31,2.027-1.01,3.847-2.13c1.817-1.01,4.145-2.33,6.778-3.85c2.527-1.41,5.261-3.03,8.093-4.65l.407-.2c1.718-.91,3.441-1.92,5.16-2.93l.101-.11c3.438-1.82,6.676-3.64,9.508-5.36c1.422-.81,2.735-1.52,3.848-2.23v0v0l-.707.71-1.719,1.52c-2.434,2.22-4.254,4.96-5.668,8.09v0v0c1.414-3.13,3.234-5.87,5.668-8.09l1.719-1.52l1.82-1.21l1.617-.92c.809-.4,1.723-.7,2.637-.9c1.313-.31,2.629-.51,3.945-.51.141-.01.278-.01.418-.01.578,0,1.164.04,1.766.11c2.133.26,4.398.97,6.684,2.11.449.23.902.47,1.351.72l751.181,434.52c-8.06-12.48-13.18-27.16-13.18-40.27v0v0c0-16.7,8.32-26.35,20.43-26.35c4.96,0,10.56,1.62,16.49,5.04c20.39,11.77,36.92,40.4,36.91,63.94v0v0c0,13.14-5.15,21.91-13.24,25.06l925.27,535.21v-161.54L525.824,1154.64c-6.312-3.64-12.277-5.37-17.566-5.37" fill="#0b7465"/><path d="M560.281,1542.71l.02,1479.6c0,15.06,10.566,33.36,23.601,40.89L2603.51,4229.22c13.04,7.53,23.62,1.43,23.62-13.62l.06-1479.65c0-15.05-10.56-33.36-23.61-40.88l-2019.693-1166c-13.035-7.53-23.606-1.42-23.606,13.64" fill="#fafaf9"/><path d="M1593.71,1941.62c-20.39-11.77-36.92-40.4-36.92-63.94s16.53-33.08,36.92-21.31s36.92,40.4,36.91,63.94c0,23.54-16.53,33.08-36.91,21.31" fill="#26b6a6"/><path d="M1577.22,1851.33c-12.11,0-20.43,9.65-20.43,26.35c0,13.11,5.12,27.79,13.18,40.27l47.41,27.42c8.09-3.15,13.24-11.92,13.24-25.06.01-23.54-16.52-52.17-36.91-63.94-5.93-3.42-11.53-5.04-16.49-5.04" fill="#70cec3"/><path d="M498.047,3085.73c-7.082-12.35-11.445-26.34-11.625-38.88v-1659.3l-73.785,42.7v1659.12c0,12.54,4.547,26.53,11.633,38.89l73.777-42.53" fill="#26b6a6"/><path d="M486.422,1387.55v0l-73.785,42.7v1659.12c0,12.54,4.547,26.53,11.633,38.89l73.777-42.53c-2.289-3.99-4.293-8.15-5.961-12.38-2.231-5.63-3.863-11.39-4.793-17.02-.527-3.22-.828-6.4-.871-9.48v-1659.3" fill="#093b33"/><path d="M1264.28,726.941l533.67-308.992c16.5-9.547,43.28-9.578,59.8-.051L3434.36,1326.91c16.52,9.53,16.54,25,.04,34.56l-533.67,308.99c-16.51,9.56-43.28,9.58-59.8.05L1264.31,761.492c-16.52-9.523-16.54-24.992-.03-34.551" fill="#dadbd8"/><path d="M3402.04,1416.26c.01,6.25-4.12,12.5-12.39,17.27l-501.36,289.41c-16.52,9.54-43.29,9.53-59.8-.02L1298.67,838.23c-8.25-4.781-12.37-11.019-12.37-17.261.01-6.25.01-46.34,0-52.567-.01-6.261,4.14-12.511,12.42-17.273l501.1-289.387c16.53-9.504,43.33-9.48,59.84.059L3389.65,1345.08c8.23,4.75,12.36,10.97,12.39,17.2.04,6.27,0,47.73,0,53.98" fill="#26b6a6"/><path d="M1829.68,454.629c-8.46,0-16.91,1.453-24.14,4.351c6.73-2.609,14.5-4.011,22.27-4.179v53.75v0c-10.12.23-20.25,2.64-28.08,7.019L1504.96,685.16l294.86-169.5c8.25-4.738,19.06-7.109,29.87-7.109c10.84,0,21.7,2.39,29.97,7.16L3389.65,1399c8.15,4.71,12.28,10.85,12.39,17.02c0-.01,0-.02,0-.04c0-.01,0-.02,0-.04c0-.01,0-.03,0-.04c0-4.65.01-22.49.01-36.5c0-.04,0-.08,0-.13c0-.13,0-.26,0-.39c0-.04,0-.09,0-.13c0-.05,0-.09,0-.13c0-.05,0-.09,0-.13c0-.05,0-.09,0-.13c0-.13,0-.26,0-.39c0-.04,0-.09,0-.13c0-.13,0-.26,0-.38c0-.05,0-.09,0-.13c0-7.15,0-13-.01-15.05-.03-6.23-4.16-12.45-12.39-17.2L1859.66,461.801c-8.27-4.781-19.13-7.172-29.98-7.172M1297.69,751.742c-7.6,4.68-11.39,10.668-11.39,16.66.01,3.11.01,14.688.01,26.278c0,.039,0,.09,0,.129c0,.32,0,.64,0,.953c0,.047,0,.09,0,.14c0,.317,0,.629,0,.95c0,.039,0,.089,0,.128c0,.141,0,.27,0,.411c0,.039,0,.089,0,.129c0,.14,0,.269,0,.41c0,.039,0,.09,0,.129c0,.14,0,.273,0,.41c0,.043,0,.09,0,.133c0,.14,0,.269,0,.41c0,.039,0,.09,0,.129s0,.089,0,.129c0,.05,0,.089,0,.14c0,.039,0,.09,0,.129c0,.051,0,.09,0,.141c0,.129,0,.261,0,.402c0,.039,0,.078,0,.129c0,.039,0,.09,0,.129c0,.051,0,.09,0,.14c0,.04,0,.079,0,.129c0,.039,0,.09,0,.133c0,.129,0,.27,0,.399c0,.039,0,.089,0,.129c0,.039,0,.089,0,.128c0,.051,0,.094,0,.133c0,.051,0,.09,0,.141c0,.039,0,.078,0,.129c0,.039,0,.09,0,.129s0,.09,0,.129c0,.043,0,.093,0,.132c0,.047,0,.09,0,.129c0,.051,0,.09,0,.129c0,.051,0,.09,0,.133c0,.047,0,.09,0,.129c0,.051,0,.09,0,.129c0,.051,0,.09,0,.129c0,.051,0,.09,0,.133c0,.046,0,.089,0,.128c0,.129,0,.258,0,.391c0,.039,0,.09,0,.129s0,.09,0,.129c0,.043,0,.082,0,.133c0,.039,0,.078,0,.129c0,.039,0,.078,0,.121c0,.129,0,.258,0,.39c0,.039,0,.078,0,.118c0,.05,0,.089,0,.132c0,.039,0,.09,0,.129s0,.078,0,.117c0,.051,0,.094,0,.133c0,.129,0,.25,0,.379c0,.039,0,.082,0,.121c0,.129,0,.25,0,.379c0,.039,0,.082,0,.121c0,.117,0,.25,0,.367c0,.043,0,.082,0,.122c0,.128,0,.25,0,.371c0,.039,0,.078,0,.121c0,.289,0,.57,0,.847c0,.039,0,.082,0,.121c0,.282,0,.551,0,.829c0,.043,0,.07,0,.113c0,5.5,0,9.867-.01,11.687.01-.367.03-.738.06-1.109v-51.41v0c0-5.93,3.78-11.871,11.33-16.598m.98,86.488v0l1529.82,884.69c.32.19.65.37.98.55-.33-.18-.66-.36-.98-.55L1298.67,838.23v0M3401.91,1418.2c-.77,5.59-4.85,11.05-12.26,15.33l-501.36,289.41v0v0l501.36-289.41c7.41-4.28,11.5-9.74,12.26-15.33m-513.94,304.92c-.03.02-.07.04-.11.06.04-.02.08-.04.11-.06m-58.5.35c8.12,4.4,18.51,6.61,28.9,6.62-10.39-.01-20.78-2.22-28.9-6.62m28.98,6.62c-.01,0-.02,0-.04,0v0c.02,0,.03,0,.04,0" fill="#0b7465"/><path d="M1799.82,515.66l-501.1,288.07c-16.54,9.512-16.56,24.95-.05,34.5l1529.82,884.69c16.51,9.55,43.28,9.56,59.8.02l501.36-289.41c16.52-9.54,16.52-24.99,0-34.53L1859.66,515.711c-16.51-9.531-43.31-9.551-59.84-.051" fill="#26b6a6"/><path d="M1829.69,508.551c-10.81,0-21.62,2.371-29.87,7.109l-294.86,169.5-206.17,118.629c-8.28,4.84-12.43,11.051-12.43,17.262v-1.301c-.04.398-.06.809-.06,1.219c0,6.242,4.12,12.492,12.37,17.261l1529.82,884.69c8.26,4.78,19.09,7.17,29.92,7.17c10.81,0,21.63-2.38,29.88-7.15l501.36-289.41c8.26-4.77,12.39-11.02,12.39-17.26c0-6.25-4.13-12.5-12.39-17.27L1859.66,515.711c-8.27-4.77-19.13-7.16-29.97-7.16" fill="#06ab91"/><path d="M1827.81,508.551v-53.75c-10.12.219-20.25,2.519-28.08,6.898L1298.79,751.07c-8.28,4.84-12.43,11.051-12.43,17.27v52.711c0-6.211,4.15-12.422,12.43-17.262L1799.73,515.57c7.83-4.379,17.96-6.789,28.08-7.019" fill="#26b6a6"/><path d="M1827.81,454.801c-10.12.219-20.25,2.519-28.08,6.898L1298.79,751.07c-8.28,4.84-12.43,11.051-12.43,17.27v52.711c0-6.211,4.15-12.422,12.43-17.262L1799.73,515.57c7.83-4.379,17.96-6.789,28.08-7.019v-53.75" fill="#093b33"/><path d="M2467.72,1350.32l57.12-32.96c1.37-.8,3.01-.88,3.64-.88l52.66,29.32-61.43,34.54-51.99-30.02" fill="#273e47"/><path d="M2536.47,1390l57.35-33.11c.94-.47,2.14-.73,3.39-.73l2.13.13l50.53,29.18-61.44,34.55-51.96-30.02" fill="#273e47"/><path d="M2352.01,1283.49l57.33-33.12c.93-.46,2.16-.73,3.36-.73l85.26,48.1-61.43,34.56-84.52-48.81" fill="#273e47"/><path d="M2283.29,1243.8l57.27-33.08c.93-.48,2.18-.76,3.42-.76l52.71,29.31-61.44,34.55-51.96-30.02" fill="#273e47"/><path d="M1969.35,724.59l52.66,29.308-61.42,34.524-51.99-29.992l57.37-33.11c.95-.48,2.15-.73,3.38-.73" fill="#273e47"/><path d="M2214.56,1204.13l57.02-32.92c1.33-.8,2.89-.93,3.7-.93l52.68,29.31-61.44,34.55-51.96-30.01" fill="#273e47"/><path d="M2597.41,1335.48l-51.99-30.01l57.22-33.04c.97-.52,2.21-.8,3.52-.8l52.67,29.34-61.42,34.51" fill="#273e47"/><path d="M2405.31,1065.97l52.68,29.31-61.43,34.54-52-29.98l57.26-33.07c.95-.51,2.22-.8,3.49-.8" fill="#273e47"/><path d="M2674.89,1311.3l52.68,29.32-61.47,34.55-51.92-30.02l57.32-33.11c.95-.48,2.15-.74,3.39-.74" fill="#273e47"/><path d="M2336.58,1026.29l52.69,29.31-61.45,34.54-51.97-29.99l57.04-32.93c1.33-.81,2.88-.93,3.69-.93" fill="#273e47"/><path d="M2267.88,986.609l52.66,29.311-61.43,34.54-52-29.98l57.36-33.121c.96-.48,2.2-.75,3.41-.75" fill="#273e47"/><path d="M2542.76,1145.33l110.51,62.73-139.05,79.39-59.25-34.18l72.68-41.94c.94-.54,2.06-1.51,2.06-3c0-1.02-.67-2.01-1.79-2.66l-45.87-26.48l56.97-32.88c1.35-.86,2.92-.98,3.74-.98" fill="#273e47"/><path d="M2077.09,1124.79l57.29-33.1c.93-.49,2.18-.77,3.42-.77l52.71,29.31-61.44,34.55-51.98-29.99" fill="#273e47"/><path d="M2474.01,1105.65l52.71,29.31-61.44,34.54-51.98-29.99l56.95-32.88c1.4-.89,3.1-.98,3.76-.98" fill="#273e47"/><path d="M1691.01,743.27l52.68,29.312-61.44,34.547-51.99-30.02l57.05-32.91c1.38-.84,3.04-.929,3.7-.929" fill="#273e47"/><path d="M1527.28,807.352l57.49-33.18c.9-.422,2.09-.66,3.25-.66l2.13.129l50.53,29.179-61.44,34.52-51.96-29.988" fill="#273e47"/><path d="M1786.78,708.871l2.13.141l50.53,29.179-61.44,34.52-51.96-29.992l57.35-33.117c.94-.473,2.14-.731,3.39-.731" fill="#273e47"/><path d="M1831.9,645.23l52.68,29.321-61.46,34.539-51.96-30.02l57.04-32.91c1.38-.84,3.05-.93,3.7-.93" fill="#273e47"/><path d="M1596.01,847.031l57.35-33.109c.93-.473,2.16-.742,3.38-.742l52.67,29.32-61.45,34.52-51.95-29.989" fill="#273e47"/><path d="M1900.65,684.879l52.63,29.34-61.41,34.523-51.99-29.98l57.3-33.09c.96-.5,2.23-.793,3.47-.793" fill="#273e47"/><path d="M1802.18,966.07l57.3-33.078c.95-.492,2.18-.773,3.45-.773l52.68,29.293-61.44,34.547-51.99-29.989" fill="#273e47"/><path d="M1870.9,1005.75l57.18-33.008c.98-.551,2.29-.863,3.59-.863l52.66,29.311-61.43,34.54-52-29.98" fill="#273e47"/><path d="M1939.64,1045.43l57.04-32.94c1.32-.8,2.88-.93,3.7-.93l52.68,29.31-61.47,34.55-51.95-29.99" fill="#273e47"/><path d="M1733.45,926.391l57.05-32.942c1.33-.808,2.88-.929,3.68-.929l52.71,29.312-61.44,34.547-52-29.988" fill="#273e47"/><path d="M2008.39,1085.08l57.3-33.09c.46-.22,1.69-.75,3.41-.75l52.69,29.31-61.47,34.55-51.93-30.02" fill="#273e47"/><path d="M1664.73,886.711l57.3-33.082c.96-.5,2.22-.789,3.46-.789l52.67,29.312-61.47,34.539-51.96-29.98" fill="#273e47"/><path d="M2145.81,1164.47l57.43-33.18c.92-.44,2.11-.69,3.29-.69l52.7,29.31-61.43,34.54-51.99-29.98" fill="#273e47"/><path d="M2317.52,1173.91l57.12-32.96c1.31-.77,2.85-.88,3.65-.88l2.11.14l50.51,29.17-61.4,34.52-51.99-29.99" fill="#273e47"/><path d="M2688.4,1477.7l57.09-32.96c1.37-.79,2.99-.88,3.63-.88l52.68,29.31-61.43,34.55-51.97-30.02" fill="#273e47"/><path d="M2757.13,1517.37l57.13-32.95c.97-.56,2.27-.88,3.58-.88l52.69,29.31-61.44,34.54-51.96-30.02" fill="#273e47"/><path d="M2248.82,1134.23l57.16-32.99c1.3-.74,2.81-.85,3.58-.85l52.66,29.31-61.44,34.54-51.96-30.01" fill="#273e47"/><path d="M2825.86,1557.06l57.09-32.96c1.36-.79,2.98-.88,3.62-.88l52.68,29.3-61.43,34.56-51.96-30.02" fill="#273e47"/><path d="M2447.01,1179.75l2.13.13l50.52,29.16-61.42,34.53-52-29.98l57.13-32.96c1.31-.77,2.84-.88,3.64-.88" fill="#273e47"/><path d="M2766.04,1432.87l57.01-32.88c1.35-.86,2.94-.99,3.76-.99l52.66,29.32-61.43,34.54-52-29.99" fill="#273e47"/><path d="M2903.49,1512.23l57.01-32.88c1.4-.89,3.09-.99,3.74-.99l52.69,29.32-61.44,34.54-52-29.99" fill="#273e47"/><path d="M2895.54,1438.69l52.67,29.31-61.45,34.54-52-29.99l57.32-33.06c.95-.52,2.18-.8,3.46-.8" fill="#273e47"/><path d="M3107.41,1473.88c.92-.42,2.1-.66,3.25-.66l2.13.13l50.52,29.17-139.08,79.39-52-30l135.18-78.03" fill="#273e47"/><path d="M2180.07,1094.55l57.12-32.96c1.31-.77,2.83-.88,3.62-.88l2.13.14l50.56,29.17-61.44,34.55-51.99-30.02" fill="#273e47"/><path d="M2973.21,1393.86l2.14.13l50.52,29.18-61.43,34.52-52-29.99l57.13-32.95c1.32-.77,2.85-.89,3.64-.89" fill="#273e47"/><path d="M3041.94,1433.54l52.68,29.31-61.46,34.52-51.99-29.99l56.96-32.86c1.35-.86,2.97-.98,3.81-.98" fill="#273e47"/><path d="M1836.44,896.152l57.05-32.91c1.33-.812,2.9-.933,3.72-.933l52.65,29.312-61.43,34.551-51.99-30.02" fill="#273e47"/><path d="M1699.01,816.789l57.03-32.91c1.32-.809,2.88-.93,3.69-.93l2.13.141l50.55,29.18-61.43,34.539-51.97-30.02" fill="#273e47"/><path d="M1924.25,788.211l52.67,29.309-61.47,34.539-51.97-29.977l57.41-33.121c.56-.281,1.75-.75,3.36-.75" fill="#273e47"/><path d="M1855.5,748.551l52.69,29.289-61.47,34.539-51.96-29.977l57.36-33.121c.95-.472,2.15-.73,3.38-.73" fill="#273e47"/><path d="M1992.96,827.91l2.12.141l50.56,29.148-61.43,34.543-52-29.992l57.04-32.91c1.39-.84,3.05-.93,3.71-.93" fill="#273e47"/><path d="M2111.34,1054.87l57.19-32.99c.95-.55,2.25-.85,3.56-.85l2.13.13l50.52,29.18-61.41,34.52-51.99-29.99" fill="#273e47"/><path d="M2130.41,907.25l52.68,29.309-61.43,34.543-52-29.981l57.05-32.941c1.38-.84,3.04-.93,3.7-.93" fill="#273e47"/><path d="M2061.71,867.57l52.66,29.309-61.45,34.543-51.99-29.992l57.37-33.11c.95-.48,2.19-.75,3.41-.75" fill="#273e47"/><path d="M1973.89,975.512l57.05-32.91c1.33-.813,2.9-.93,3.72-.93l52.66,29.308-61.44,34.54-51.99-30.008" fill="#273e47"/><path d="M1767.72,856.469l57.04-32.91c1.33-.809,2.9-.93,3.72-.93l52.66,29.312-61.44,34.539-51.98-30.011" fill="#273e47"/><path d="M2042.62,1015.19l57.12-32.96c1.31-.769,2.85-.878,3.65-.878l52.66,29.308-61.44,34.55-51.99-30.02" fill="#273e47"/><path d="M1905.19,935.832l57.02-32.91c1.33-.813,2.9-.93,3.72-.93l2.13.129l50.53,29.18-61.44,34.551-51.96-30.02" fill="#273e47"/><path d="M2199.11,946.93l52.71,29.312-61.45,34.538-51.98-29.991l57.26-33.059c.95-.519,2.18-.8,3.46-.8" fill="#273e47"/><path d="M2605.19,1429.68l57.36-33.11c.95-.48,2.15-.73,3.38-.73l52.66,29.31-61.43,34.54-51.97-30.01" fill="#273e47"/><path d="M1510.51,797.66l-51.98-29.988l57.38-33.113c.94-.469,2.14-.727,3.38-.727l2.13.137l50.56,29.179-61.47,34.512" fill="#273e47"/><path d="M1613.53,767.449l-77.3-44.629l57.36-33.109c.94-.481,2.14-.731,3.38-.731l2.13.129l75.86,43.801-61.43,34.539" fill="#273e47"/><path d="M1427.11,858.359l-62.85-36.257l57.12-32.961c1.33-.77,2.85-.891,3.65-.891l63.52,35.559-61.44,34.55" fill="#273e47"/><path d="M1754.42,669.398l-62.83-36.277l57.02-32.91c1.39-.84,3.05-.941,3.71-.941l63.54,35.589-61.44,34.539" fill="#273e47"/><path d="M1709.27,733.02l-95.37-55.051l57.36-33.117c.93-.461,2.13-.723,3.38-.723l2.13.133l93.96,54.25-61.46,34.508" fill="#273e47"/><path d="M1534.49,851.449l52.68,29.321-61.43,34.531-51.99-29.981l57.04-32.941c1.34-.809,2.89-.93,3.7-.93" fill="#273e47"/><path d="M1769.27,588.27l57.09-32.961c.97-.559,2.28-.887,3.61-.887l77.99,43.957-61.42,34.519-77.27-44.628" fill="#273e47"/><path d="M1603.24,891.129l52.66,29.312-61.44,34.551-51.95-30.023l57.33-33.11c.94-.468,2.15-.73,3.4-.73" fill="#273e47"/><path d="M1908.02,1067.11l2.13.14l50.55,29.18-61.44,34.54-51.96-30.01l57.16-33c.95-.54,2.25-.85,3.56-.85" fill="#273e47"/><path d="M1976.77,1106.79l52.66,29.32-61.44,34.54-51.98-30.01l57.17-33c1.31-.74,2.81-.85,3.59-.85" fill="#273e47"/><path d="M1839.29,1027.43l2.13.14l50.56,29.18-61.44,34.54-51.99-30.02l57.05-32.91c1.38-.84,3.04-.93,3.69-.93" fill="#273e47"/><path d="M1740.67,970.492l2.13.137l50.55,29.18-61.44,34.541-51.96-30.02l57.16-32.99c.95-.539,2.25-.848,3.56-.848" fill="#273e47"/><path d="M1671.94,930.809l52.69,29.312-61.44,34.551-51.96-30.02l57.27-33.082c.95-.488,2.17-.761,3.44-.761" fill="#273e47"/><path d="M3136.58,1377.68l57.45-33.18c.92-.42,2.1-.66,3.25-.66l2.13.14l50.56,29.17-61.44,34.55-51.95-30.02" fill="#273e47"/><path d="M2778.42,1170.94l57.05-32.9c1.34-.84,2.9-.96,3.71-.96l52.68,29.31-61.43,34.54-52.01-29.99" fill="#273e47"/><path d="M2999.09,1298.32l57.11-32.95c1.36-.8,3-.89,3.63-.89l2.13.13l119.28,68.86-61.43,34.54-120.72-69.69" fill="#273e47"/><path d="M2847.15,1210.62l57.01-32.88c1.33-.84,2.94-.96,3.77-.96l52.66,29.28-61.44,34.55-52-29.99" fill="#273e47"/><path d="M2915.89,1250.3l56.79-32.78c1.39-.94,3.09-1.08,3.98-1.08l52.65,29.31-61.43,34.54-51.99-29.99" fill="#273e47"/><path d="M2045.47,1146.48l2.13.13l50.56,29.18-61.44,34.54-51.99-30.01l57.04-32.92c1.33-.8,2.89-.92,3.7-.92" fill="#273e47"/><path d="M3179.59,1492.23l-52-30.02l135.16-78.03c.93-.43,2.08-.66,3.26-.66l2.13.13l50.51,29.17-139.06,79.41" fill="#273e47"/><path d="M1942.9,688.512l57.01-32.91c1.39-.84,3.05-.93,3.7-.93l63.52,35.578-61.42,34.551-62.81-36.289" fill="#273e47"/><path d="M2022.48,734.461l56.93-32.852c1.35-.859,2.95-.988,3.78-.988l2.13.141l390.57,225.457-61.44,34.57-391.97-226.328" fill="#273e47"/><path d="M2038.08,764.262l52.68,29.297-61.44,34.543-51.99-29.981l57.3-33.09c.95-.492,2.18-.769,3.45-.769" fill="#273e47"/><path d="M1863.31,642.582l57.04-32.93c1.34-.812,2.88-.933,3.68-.933l63.54,35.59-61.44,34.531-62.82-36.258" fill="#273e47"/><path d="M2431.19,970.449l57.12-32.957c1.32-.773,2.84-.883,3.64-.883l2.13.141l61.39,35.422-61.46,34.538-62.82-36.261" fill="#273e47"/><path d="M2590.36,1062.33l57.22-33.04c1.29-.7,2.76-.8,3.52-.8l2.13.14l61.39,35.45-61.44,34.54-62.82-36.29" fill="#273e47"/><path d="M2510.78,1016.41l57.35-33.121c.96-.48,2.2-.75,3.41-.75l63.52,35.611-61.46,34.52-62.82-36.26" fill="#273e47"/><path d="M2669.92,1108.29l57.12-32.97c1.32-.76,2.84-.88,3.64-.88l2.13.14l75.84,43.79-61.43,34.55-77.3-44.63" fill="#273e47"/><path d="M2743.61,1350.99l2.13.13l50.55,29.18-61.43,34.54-51.99-30.01l57.23-33.05c.97-.51,2.21-.79,3.51-.79" fill="#273e47"/><path d="M2830.23,1221.61l2.13.13l50.55,29.18-61.43,34.54-51.99-29.98l57.23-33.08c1.28-.69,2.75-.79,3.51-.79" fill="#273e47"/><path d="M2587.91,1081.68l143.07,81.54-61.43,34.54-142.41-82.21l57.41-33.12c.45-.22,1.69-.75,3.36-.75" fill="#273e47"/><path d="M2982.16,1309.33l2.13.13l50.55,29.21-61.45,34.51-51.97-30.01l57.36-33.11c.94-.47,2.14-.73,3.38-.73" fill="#273e47"/><path d="M3050.88,1349.01l2.13.14l50.53,29.17-61.42,34.55-51.98-30.02l57.23-33.04c1.29-.7,2.75-.8,3.51-.8" fill="#273e47"/><path d="M2519.13,1042l52.71,29.31-61.43,34.54-52-29.98l57.1-32.97c.96-.57,2.28-.9,3.62-.9" fill="#273e47"/><path d="M2904.49,1354.18l2.13.14l50.53,29.17-61.44,34.52-51.99-29.99l56.96-32.86c1.35-.85,2.96-.98,3.81-.98" fill="#273e47"/><path d="M2175.53,843.621l52.65,29.32-61.41,34.52-51.99-29.992l57.3-33.078c.95-.493,2.18-.77,3.45-.77" fill="#273e47"/><path d="M2450.46,1002.32l52.62,29.34-61.4,34.52-51.99-29.99l57.48-33.18c.45-.21,1.65-.69,3.29-.69" fill="#273e47"/><path d="M2106.8,803.949l2.13.133l50.52,29.18-61.41,34.508-51.98-29.981l57.36-33.109c.95-.481,2.15-.731,3.38-.731" fill="#273e47"/><path d="M2244.27,883.281l52.66,29.309-61.43,34.539-51.99-29.977l57.54-33.183c.55-.258,1.71-.688,3.22-.688" fill="#273e47"/><path d="M2312.98,922.98l2.13.141l50.52,29.18-61.41,34.519-51.99-29.988l57.05-32.91c1.33-.813,2.89-.942,3.7-.942" fill="#273e47"/><path d="M2381.71,962.672l2.12.129l50.56,29.148-61.44,34.541-51.99-29.978l57.36-33.121c.94-.461,2.14-.719,3.39-.719" fill="#273e47"/><path d="M2212.85,1243.1l52.65,29.32-61.43,34.51-51.99-29.99l57.04-32.91c1.34-.81,2.91-.93,3.73-.93" fill="#273e47"/><path d="M3119.62,1388.69l2.12.13L3172.3,1418l-61.46,34.54-51.97-30.01l57.36-33.11c.94-.47,2.14-.73,3.39-.73" fill="#273e47"/><path d="M2350.3,1322.46l52.66,29.31-61.44,34.52-51.99-29.99l57.04-32.91c1.34-.81,2.91-.93,3.73-.93" fill="#273e47"/><path d="M2502.95,1410.58l52.65,29.32-61.43,34.54-51.99-30.01l57.12-32.96c1.32-.77,2.85-.89,3.65-.89" fill="#273e47"/><path d="M2434.22,1370.9l52.65,29.32-61.42,34.54-52-30.01l57.12-32.96c1.32-.77,2.85-.89,3.65-.89" fill="#273e47"/><path d="M2144.12,1203.42l52.66,29.31-61.44,34.55-51.96-30.02l57.16-32.99c1.3-.74,2.81-.85,3.58-.85" fill="#273e47"/><path d="M2281.57,1282.78l2.13.14l50.53,29.18-61.44,34.51-51.99-29.99l57.05-32.91c1.33-.81,2.9-.93,3.72-.93" fill="#273e47"/><path d="M2571.68,1450.26l52.64,29.32-61.42,34.54-52-30.01l57.12-32.96c1.32-.77,2.86-.89,3.66-.89" fill="#273e47"/><path d="M2841.11,1628.83l52.64,29.34-33.4,18.04-52.03-30.04l29.25-16.52c.98-.52,2.26-.82,3.54-.82" fill="#273e47"/><path d="M2955.3,1562.9l52.68,29.31-61.44,34.54-51.96-30.01l57.08-32.95c1.36-.81,2.99-.89,3.64-.89" fill="#273e47"/><path d="M2634.91,1509.82l2.14.14l50.49,29.17-33.37,18.04-52-30.04l29.1-16.43c1.31-.77,2.84-.88,3.64-.88" fill="#273e47"/><path d="M2703.64,1549.5l2.13.13l50.49,29.18-33.36,18.04-52.01-30.04l29.37-16.58c.93-.47,2.16-.73,3.38-.73" fill="#273e47"/><path d="M2772.36,1589.18l52.63,29.31-33.37,18.04-51.99-30.04l29.35-16.58c.93-.47,2.17-.73,3.38-.73" fill="#273e47"/><path d="M810.754,1480.6c2.133.26,4.398.97,6.684,2.11-2.286-1.14-4.551-1.85-6.684-2.11" fill="#27595f"/><path d="M2849.75,4186.2v0c-.1.98-.4,1.86-.69,2.64-.33,1.18-.82,2.29-1.43,3.32c0,.01,0,.01-.01.01.62-1.04,1.11-2.15,1.44-3.33.29-.78.59-1.66.69-2.64" fill="#58737c"/><path d="M808.988,1480.49c-.14,0-.277,0-.418.01l.43-.01c.574,0,1.156.04,1.754.11-.602-.07-1.188-.11-1.766-.11m8.45,2.22c.449.23.898.47,1.347.72l751.195,434.52c-.01,0-.01,0-.01,0L818.789,1483.43c-.449-.25-.902-.49-1.351-.72m799.942,462.66v0l925.27,535.21v0l-925.27-535.21" fill="#27595f"/><path d="M1569.97,1917.95c0,0,0,0,.01,0l47.4,27.42v0l-47.41-27.42" fill="#3f757a"/><path d="M798.551,1484.04l-1.719,1.52c-2.242,2.05-3.965,4.53-5.328,7.37c1.363-2.84,3.086-5.32,5.328-7.37l1.719-1.52" fill="#27595f"/><path d="M2700.98,3544.82v446.59l139.59,80.7v-446.83l-139.59-80.46" fill="#58737c"/><path d="M797.926,1567.41v85.23L2542.65,2659.89v-85.17L797.926,1567.41M2627.16,3502.28l-.02,446.44l73.84,42.69v-446.59l-73.82-42.54" fill="#27595f"/><path d="M808.629,1490.5h-.059c-.41,0-.98.08-2.093.36l-.747.42-1.277.85-.223.18-.14.16-.512.47c-1.281,1.18-2.359,2.75-3.277,4.78-1.555,3.5-2.375,7.48-2.375,11.52v58.17L2542.65,2574.72v-82.59L813.824,1492.12c-2.508-1.44-4.16-1.62-5.195-1.62" fill="#27595f"/><path d="M797.926,1652.64v1238.59L2627.14,3948.72l.02-446.44-53.71-30.96c-5.23-2.98-10.16-7.33-14.47-12.51-7.01-8.37-12.41-18.85-14.87-29.15-.96-3.96-1.49-7.89-1.49-11.68l-.02-100.22.05-.03v-657.84L797.926,1652.64" fill="#56727b"/><path d="M2827.7,4200c.04.02.09.03.14.04.77.2,1.54.36,2.29.48-.17-.03-.35-.06-.52-.09-.63-.11-1.27-.26-1.91-.43" fill="#58737c"/><path d="M787.926,1561.64v85.23l10,5.77v-85.23l-10-5.77" fill="#27595f"/><path d="M809,1480.49l-.43.01c-1.316,0-2.632.2-3.945.51-.914.2-1.828.5-2.637.9l-1.617.92-1.82,1.21-1.719,1.52c-2.242,2.05-3.965,4.53-5.328,7.37-.117.24-.231.48-.34.72v0c-1.824,4.35-2.937,9.51-3.238,15.59v0v52.4l10,5.77v-58.17c0-4.04.82-8.02,2.375-11.52.918-2.03,1.996-3.6,3.277-4.78l.512-.47.14-.16.223-.18l1.277-.85.747-.42c1.113-.28,1.683-.36,2.093-.36h.059c1.035,0,2.687.18,5.195,1.62L2542.65,2492.13v-11.55l-925.27-535.21c-2.19.85-4.6,1.29-7.18,1.29-4.97,0-10.57-1.62-16.49-5.04-9.04-5.22-17.32-13.74-23.73-23.67L818.785,1483.43c-.449-.25-.898-.49-1.347-.72v0c-2.286-1.14-4.551-1.85-6.684-2.11v0c-.598-.07-1.18-.11-1.754-.11" fill="#27595f"/><path d="M787.926,1646.87v1238.65l.051-.05l9.949,5.76v-1238.59l-10-5.77" fill="#56727b"/><path d="M1569.98,1917.95c6.41,9.93,14.69,18.45,23.73,23.67c5.92,3.42,11.52,5.04,16.49,5.04c2.58,0,4.99-.44,7.18-1.29l-47.4-27.42" fill="#3f757a"/><path d="M2700.98,4127.95v.01l118.71,68.64c2.77,1.59,5.45,2.72,8.01,3.4.64.17,1.28.32,1.91.43-3.11-.57-6.44-1.84-9.91-3.84l-118.72-68.64" fill="#58737c"/><path d="M2627.13,4085.25v.02l73.85,42.69v-.01l-73.85-42.7" fill="#27595f"/><path d="M1571.33,3474.81l1055.8,610.46v-.02l-1055.8-610.44" fill="#56727b"/><path d="M2840.57,3625.28v446.83l9.93,5.74v101.18c-.01,2.24-.2,4.32-.56,6.25.25-.84.34-1.69.44-2.61.09-1.21.19-2.53.19-3.85v-547.78l-10-5.76m9.18,560.92c-.49,2.23-1.2,4.22-2.12,5.96.61-1.03,1.1-2.14,1.43-3.32.29-.78.59-1.66.69-2.64m-6.29,11.17c-.74.61-1.53,1.14-2.37,1.59.69-.34,1.38-.75,2-1.21l.2-.2.17-.18" fill="#58737c"/><path d="M2840.46,4199.26c-5.57,2.63-12.75,1.93-20.75-2.63L818.789,3039.73c-17-9.81-30.863-33.8-30.863-53.43v-100.78l-39.36,23.07v100.08c0,19.63,13.758,43.51,30.762,53.32L2780.35,4218.89c8.81,5.16,16.7,5.27,22.36,1.82c5.57-3.33,31.17-18,37.75-21.45" fill="#26b6a6"/><path d="M2850.5,4179.03c-.11,19.47-13.84,27.35-30.8,17.56L818.77,3039.7c-17.02-9.83-30.825-33.73-30.825-53.39l.032-100.84L2850.5,4077.85v101.18" fill="#26b6a6"/><path d="M2826.25,4199.57c.54.18,1.07.34,1.6.47h-.01c-.45-.12-.91-.25-1.36-.4-.08-.01-.15-.04-.23-.07" fill="#fff"/><path d="M2820.03,4196.81c.02.01.04.02.05.03-.01-.01-.03-.02-.05-.03m.32.18c.09.05.18.1.28.15-.1-.05-.19-.1-.28-.15m.29.15c.11.06.22.13.34.18-.12-.05-.23-.12-.34-.18m.34.18c1.8.95,3.57,1.7,5.27,2.25.08.03.15.06.23.07v0c-1.78-.55-3.62-1.33-5.5-2.32" fill="#97aaae"/><path d="M2826.48,4199.64c.45.15.91.28,1.36.4-.05-.01-.1-.02-.14-.04-.41-.11-.81-.22-1.22-.36" fill="#97aaae"/><path d="M2700.98,4127.96v.02l118.73,68.65c.11.06.21.12.32.18.02.01.04.02.05.03.09.05.18.1.27.15s.18.1.28.15c0,0,0,0,.01,0c.11.06.22.13.34.18v0c1.88.99,3.72,1.77,5.5,2.32.41.14.81.25,1.22.36-2.56-.68-5.24-1.81-8.01-3.4l-118.71-68.64" fill="#97aaae"/><path d="M2627.13,4085.27v.02l73.85,42.69v-.02l-73.85-42.69" fill="#759b9b"/><path d="M802.637,3025.12c4.703,6.07,10.238,11.2,16.152,14.61L2627.13,4085.29v-.02l-1055.8-610.46L818.77,3039.7c-5.915-3.42-11.442-8.53-16.133-14.58" fill="#96a9ad"/><path d="M2700.98,4173.01v.04l79.34,45.87c4.76,2.77,9.25,4.07,13.26,4.15-4.01-.09-8.49-1.4-13.23-4.18l-79.37-45.88" fill="#fff"/><path d="M2627.13,4130.31v.04l73.85,42.7v-.04l-73.85-42.7" fill="#52b39e"/><path d="M765.352,3050.05c4.203,4.94,8.972,9.1,14.015,11.98L2627.13,4130.35v-.04L779.328,3061.99c-5.035-2.9-9.781-7.04-13.976-11.94" fill="#fcfdfc"/><path d="M2839.68,4199.67c-7.6,4.07-31.6,17.82-36.97,21.04-1.68,1.02-3.55,1.73-5.59,2.09c2.04-.35,3.91-1.05,5.6-2.06c5.36-3.29,29.56-17.04,36.96-21.07m-42.6,23.14c-.01,0-.01,0-.01,0s0,0,.01,0" fill="#fff"/><path d="M797.129,3016.96l-39.207,22.56c2.183,3.75,4.687,7.31,7.43,10.53c4.195,4.9,8.941,9.04,13.976,11.94L2627.13,4130.31l73.85,42.7l79.37,45.88c4.74,2.78,9.22,4.09,13.23,4.18.13,0,.25,0,.38,0c1.07,0,2.11-.09,3.11-.26c0,0,0,0,.01,0c.01-.01.03-.01.04-.01c2.04-.36,3.91-1.07,5.59-2.09c5.37-3.22,29.37-16.97,36.97-21.04.14-.07.27-.14.4-.21-.57.25-1.15.47-1.75.65-1.51.46-3.14.7-4.86.7-1.78,0-3.66-.26-5.62-.77-.53-.13-1.06-.29-1.6-.47-1.7-.55-3.47-1.3-5.27-2.25v0c-.12-.05-.23-.12-.34-.18-.01,0-.01,0-.01,0-.1-.05-.19-.1-.28-.15s-.18-.1-.27-.15c-.01-.01-.03-.02-.05-.03-.11-.06-.21-.12-.32-.18l-118.73-68.65-73.85-42.69L818.789,3039.73c-5.914-3.41-11.449-8.54-16.152-14.61-2-2.57-3.844-5.31-5.508-8.16" fill="#5cc8bc"/><path d="M797.156,3016.94l-.027.02c1.664,2.85,3.508,5.59,5.508,8.16c4.691,6.05,10.218,11.16,16.133,14.58l752.56,435.11-752.525-435.1c-8.399-4.92-16.129-13.22-21.649-22.77M2840.34,4199.32c-.65.31-1.32.57-2.01.79.6-.18,1.18-.4,1.75-.65.09-.05.17-.1.26-.14" fill="#5cc8bc"/><path d="M787.926,2885.52l-39.36,23.07v-.16l-.05.03.027,100.23c0,3.53.457,7.2,1.301,10.89-.832-3.7-1.278-7.38-1.278-10.91v-100.08l39.36-23.07" fill="#ced0cd"/><path d="M787.977,2885.47l-.051.03v100.8c0,7.58,2.066,15.81,5.582,23.62-3.504-7.8-5.563-16.02-5.563-23.61l.032-100.84" fill="#475f68"/><path d="M787.926,2885.52v0l-39.36,23.07v100.08c0,3.53.446,7.21,1.278,10.91c1.543,6.75,4.379,13.61,8.078,19.94v0l39.141-22.68c-1.305-2.25-2.497-4.57-3.555-6.92-3.516-7.81-5.582-16.04-5.582-23.62v-100.78" fill="#19b19d"/><path d="M787.977,2885.47l-.032,100.84c0,7.59,2.059,15.81,5.563,23.61c1.058,2.35,2.25,4.67,3.555,6.92l.027-.01c.023.04.047.07.066.11l.032-.02c-5.723-9.69-9.211-20.64-9.211-30.63v-100.82" fill="#19b19d"/><path d="M797.063,3016.84l-39.141,22.68l39.207-22.56c-.024-.04-.043-.08-.066-.12" fill="#4ac2ad"/><path d="M797.09,3016.83l-.027.01c.023.04.042.08.066.12l.027-.02c-.019-.04-.043-.07-.066-.11" fill="#4ac2ad"/><path d="M2664.82,4064.25c-9.62-5.55-17.41-22.06-17.41-36.87c0-14.82,7.79-22.32,17.41-16.76c9.62,5.55,17.42,22.06,17.42,36.87s-7.8,22.31-17.42,16.76" fill="#33535f"/><path d="M2727.53,4100.52c-9.62-5.56-17.42-22.06-17.42-36.87c0-14.82,7.8-22.32,17.42-16.76c9.62,5.55,17.42,22.06,17.42,36.87s-7.8,22.31-17.42,16.76" fill="#33535f"/><path d="M2790.24,4136.79c-9.62-5.55-17.42-22.06-17.42-36.87s7.8-22.32,17.42-16.76c9.62,5.55,17.41,22.06,17.41,36.87s-7.79,22.31-17.41,16.76" fill="#33535f"/><path d="M748.566,1538.91v85.23l39.36,22.73v-85.23l-39.36-22.73" fill="#21434a"/><path d="M799.258,1483.33c-1.113.71-2.426,1.42-3.848,2.23-2.832,1.72-6.07,3.54-9.508,5.36l-.101.11c-1.719,1.01-3.442,2.02-5.16,2.93l-.407.2c-2.832,1.62-5.566,3.24-8.093,4.65-2.633,1.52-4.961,2.84-6.778,3.85-1.82,1.12-3.242,1.82-3.847,2.13-1.926,1.01-3.746,2.42-5.258,4.24-1.625,1.73-3.039,3.85-4.153,6.28-2.226,4.65-3.539,10.32-3.539,16.29v7.31l39.36,22.73v-52.4v0v0v0v0c0-5.67,1.215-11.03,3.238-15.59v0c1.414-3.13,3.234-5.87,5.668-8.09l1.719-1.52.707-.71" fill="#21434a"/><path d="M748.566,1624.14v1284.29l39.36-22.93v-1238.63l-39.36-22.73" fill="#3a4f58"/><path d="M791.164,1493.65c-2.023,4.56-3.238,9.92-3.238,15.59.301-6.08,1.414-11.24,3.238-15.59" fill="#26404a"/><path d="M787.926,2885.5l-39.36,22.93v.16l39.36-23.07v-.02" fill="#364b55"/><path d="M1456.86,2371.68c0,0-72.84,47.1-82.26,47.39-9.42.3-206.92,6.51-206.92,6.51l82.25-43.78v-3.62l206.93-6.5" fill="#17282f"/><path d="M1102.01,2229.8v129.6l354.85,441.06v-172L1249.93,2381.8v-3.62l206.93-6.5v-172.01l-354.85,30.13" fill="#fafaf9"/><path d="M1456.86,2800.46l-82.26,47.4-354.84-441.06l82.25-47.4l354.85,441.06" fill="#33535f"/><path d="M1019.76,2406.8v-129.61l82.25-47.39v129.6l-82.25,47.4" fill="#273e47"/><path d="M1671.64,2284.91l-110.15-63.59l274.59,1006.43l106.22,61.33-270.66-1004.17" fill="#fafaf9"/><path d="M1942.3,3289.08l-82.25,47.4-106.23-61.33l82.26-47.4l106.22,61.33" fill="#33535f"/><path d="M1753.82,3275.15l82.26-47.4-274.59-1006.43-82.26,47.39l274.59,1006.44" fill="#273e47"/><path d="M1964.68,2759.75l82.26-47.4l206.91,249.07-82.25,47.39-206.92-249.06" fill="#17282f"/><path d="M2253.85,2961.42l-206.91,7.72v172l354.83-31.33v-129.6l-354.83-439.86v172l206.91,245.44v3.63" fill="#fafaf9"/><path d="M1964.68,3188.54l82.26-47.4l354.83-31.33-82.25,47.4-354.84,31.33" fill="#33535f"/><path d="M2046.94,3141.14v-172l-82.26,47.4v172" fill="#273e47"/><path d="M1964.68,2759.75l82.26-47.4v-172l-82.26,47.39v172.01" fill="#273e47"/><path d="M2604.61,1889.87c0,0,0,0,.01,0-.01,0-.01,0-.01,0m.06.01c2.6.28,5.4,1.25,8.21,2.85-2.81-1.6-5.61-2.57-8.21-2.85m-10.21,2.24l-1.8,1.2-.02.02-1.72,1.52c-2.28,2.08-4.02,4.62-5.4,7.51v0c1.38-2.89,3.12-5.43,5.4-7.51l1.72-1.52l1.82-1.22" fill="#547179"/><path d="M3495.79,3930.13c0,0,0,0,0,.01-.11.98-.41,1.88-.71,2.67-.34,1.21-.83,2.34-1.47,3.4v0c.64-1.06,1.13-2.19,1.47-3.4.3-.8.61-1.69.71-2.68m-23.78,13.32c.01,0,.02.01.02.01c1.31.44,2.59.76,3.83.98c0,0,0,0-.01-.01-1.24-.21-2.52-.54-3.84-.98" fill="#58737c"/><path d="M2603.07,1889.79c-.14,0-.28,0-.42.01l.44-.01c.5,0,1,.03,1.52.08-.52-.05-1.03-.08-1.54-.08m1.55.08c.01,0,.03.01.05.01-.02,0-.04-.01-.05-.01m8.26,2.86l852.86,492.08c15.51,8.95,28.41,29.6,30.55,48.14-2.14-18.54-15.04-39.19-30.55-48.15l-852.86-492.07" fill="#547179"/><path d="M3486.61,2569.2c-201.97,62.77-416.35,107.35-636.04,133.77v276.67l279.84,161.68c6.04,3.49,10.95,11.64,10.95,18.19v0v0c0,4.54-2.35,7.12-5.81,7.12-1.53,0-3.29-.51-5.14-1.58l-279.84-161.68v71.09l115.42,66.68c6.06,3.5,10.96,11.64,10.96,18.2v0v0c0,4.53-2.35,7.12-5.81,7.12-1.53,0-3.29-.51-5.15-1.59l-115.42-66.68v351.33l636.04,366.57v-1246.89M2997.5,3171.21v0c0-4.54,2.35-7.13,5.81-7.13c1.53,0,3.29.51,5.14,1.58l129.97,74.8c6.06,3.5,10.96,11.64,10.96,18.19v0v0c0,4.54-2.35,7.13-5.81,7.13-1.53,0-3.29-.51-5.15-1.59l-129.97-74.8c-6.05-3.49-10.95-11.63-10.95-18.18v0m164.41.17v0c0-4.54,2.35-7.12,5.81-7.12c1.53,0,3.29.51,5.15,1.58l129.97,74.8c6.05,3.49,10.96,11.64,10.96,18.19v0v0c0,4.54-2.36,7.12-5.81,7.12-1.54,0-3.29-.5-5.15-1.58l-129.97-74.8c-6.06-3.49-10.96-11.63-10.96-18.19v0" fill="#58737c"/><path d="M2602.72,1899.8h-.07c-.41,0-.97.08-2.09.35l-.74.42-1.28.85-.22.19-.14.16-.51.46c-1.29,1.18-2.37,2.77-3.28,4.78-1.55,3.5-2.38,7.49-2.38,11.53v190.8l157.67,91.04c13.87,8,13.87,20.98,0,28.99l-157.67,91.03v27.09c28.37,16.38,51.85,29.93,69.63,40.2c18.68,10.78,34.32,34.85,38.33,57.34.66,3.68,1.01,7.32,1.01,10.85v116.28l118.73,68.68c17,9.81,30.86,33.7,30.86,53.43v8.7c219.69-26.42,434.07-71,636.04-133.77v-130.96c0-16.18-11.85-36.68-25.86-44.77l-852.83-492.06c-2.52-1.43-4.17-1.61-5.2-1.61" fill="#547179"/><path d="M2592.01,2109.34v211.06l157.67-91.03c13.87-8.01,13.87-20.99,0-28.99l-157.67-91.04" fill="#526d76"/><path d="M2592.01,2347.49v.04l69.63,40.2c18.68,10.78,34.31,34.82,38.33,57.3-4.01-22.49-19.65-46.56-38.33-57.34-17.78-10.27-41.26-23.82-69.63-40.2" fill="#276469"/><path d="M2592.01,2347.53v161.6l108.97,63.03v-116.28c0-25.1-17.6-55.61-39.34-68.15l-69.63-40.2" fill="#27595f"/><path d="M2700.98,2572.16v0l118.73,68.68-118.73-68.68" fill="#3a5964"/><path d="M2592.01,2509.13v0l108.97,63.03v0l-108.97-63.03" fill="#31545f"/><path d="M2840.57,2704.16c-39.04,4.6-78.17,8.61-117.5,12.06l45.43,26.26c6.05,3.49,10.96,11.64,10.96,18.19v0v0c0,4.54-2.36,7.13-5.81,7.13-1.54,0-3.29-.51-5.15-1.59l-67.52-39.03v71.19l67.52,39.03c6.05,3.49,10.96,11.64,10.96,18.19v0v0c0,4.54-2.36,7.13-5.81,7.13-1.54,0-3.29-.51-5.15-1.59l-67.52-39.02v71.18l67.52,39.03c6.05,3.49,10.96,11.64,10.96,18.19v0v0c0,4.54-2.36,7.12-5.81,7.12-1.54,0-3.29-.51-5.15-1.58l-67.52-39.03v71.01l139.59,80.65v-71.09l-9.06-5.23c-6.04-3.49-10.96-11.64-10.96-18.19v0v0c0-4.54,2.36-7.13,5.82-7.13c1.53,0,3.28.51,5.14,1.59l9.06,5.23v-269.7m-139.59,307.6v351.55l139.59,80.45v-351.35l-139.59-80.65" fill="#3a5964"/><path d="M2700.98,2583.72v24.82l67.52,39.02c6.05,3.5,10.96,11.64,10.96,18.19v0v0c0,4.54-2.36,7.13-5.82,7.13-1.53,0-3.28-.51-5.14-1.59l-67.52-39.02v33.86v37.32l22.09,12.77c39.33-3.45,78.46-7.46,117.5-12.06v-9.89c0-16.17-11.84-36.67-25.87-44.77l-113.72-65.78" fill="#3a5964"/><path d="M2592.01,2603.21v85.18l11.57,6.68c13.05,7.52,23.61,25.83,23.61,40.88l-.02,584.81l73.81,42.55v-351.55l-33.88-19.58c-6.05-3.49-10.95-11.63-10.95-18.18v0v0c0-4.54,2.35-7.13,5.8-7.13c1.54,0,3.29.51,5.15,1.58l33.88,19.58v-71.01l-33.88-19.58c-6.05-3.49-10.95-11.64-10.95-18.19v0v0c0-4.54,2.35-7.13,5.81-7.13c1.53,0,3.28.51,5.14,1.59l33.88,19.58v-71.18l-33.88-19.59c-6.05-3.5-10.95-11.64-10.95-18.19v0v0c0-4.54,2.35-7.13,5.81-7.13c1.53,0,3.28.51,5.14,1.58l33.88,19.59v-71.19l-33.88-19.58c-6.05-3.49-10.95-11.64-10.95-18.19v0v0c0-4.54,2.35-7.12,5.81-7.12c1.53,0,3.28.5,5.14,1.58l33.88,19.58v-37.32l-108.97-62.92" fill="#31545f"/><path d="M2592.01,2520.68v82.53l108.97,62.92v-33.86l-33.88-19.59c-6.05-3.49-10.95-11.64-10.95-18.19v0v0c0-4.54,2.35-7.12,5.8-7.12c1.54,0,3.29.51,5.15,1.58l33.88,19.59v-24.82l-108.97-63.04" fill="#31545f"/><path d="M2592.01,2688.39v612.11l35.16,20.26.02-584.81c0-15.05-10.56-33.36-23.61-40.88l-11.57-6.68" fill="#3a5964"/><path d="M2850.57,2702.97c-3.34.41-6.65.8-10,1.19v269.7l10,5.78v-276.67" fill="#3a5964"/><path d="M2700.98,2572.16v11.56l113.72,65.78c14.03,8.1,25.87,28.6,25.87,44.77v9.89c3.35-.39,6.66-.78,10-1.19v-8.7c0-19.73-13.86-43.62-30.86-53.43v0l-118.73-68.68" fill="#3a5964"/><path d="M2592.01,2509.13v11.55l108.97,63.04v-11.56l-108.97-63.03" fill="#31545f"/><path d="M2840.57,2997.59v71.09l10,5.78v-71.09l-10-5.78m0,94.82v351.35l10,5.76v-351.33l-10-5.78" fill="#3a5964"/><path d="M3496.61,2566.07c-3.27,1.03-6.73,2.11-10,3.13v1246.89l9.93,5.73v101.18c-.02,2.21-.21,4.28-.56,6.19.24-.82.34-1.65.42-2.55.1-1.22.21-2.53.21-3.85v-1356.72" fill="#58737c"/><path d="M2603.09,1889.79l-.44.01c-1.31,0-2.62.2-3.94.5-.91.2-1.82.51-2.63.91l-1.62.91-1.82,1.22-1.72,1.52c-2.28,2.08-4.02,4.62-5.4,7.51-.09.19-.18.38-.27.58v0c-1.83,4.35-2.93,9.51-3.23,15.59v0v185.03l9.99,5.77v-190.8c0-4.04.83-8.03,2.38-11.53.91-2.01,1.99-3.6,3.28-4.78l.51-.46.14-.16.22-.19l1.28-.85.74-.42c1.12-.27,1.68-.35,2.09-.35h.07c1.03,0,2.68.18,5.2,1.61l852.83,492.06c14.01,8.09,25.86,28.59,25.86,44.77v130.96c3.27-1.02,6.73-2.1,10-3.13v-127.83c0-1.74-.11-3.5-.32-5.29-2.14-18.54-15.04-39.19-30.55-48.14l-852.86-492.08v0c-2.81-1.6-5.61-2.57-8.21-2.85v0c-.02,0-.04-.01-.05-.01v0c-.01,0-.01,0-.01,0v0c-.52-.05-1.02-.08-1.52-.08m-11.08,430.61l-9.99,5.76v15.56c3.41,1.97,6.71,3.87,9.99,5.77v-27.09" fill="#547179"/><path d="M2582.02,2103.57v222.59l9.99-5.76v-211.06l-9.99-5.77" fill="#526d76"/><path d="M2582.02,2341.72v.04l9.99,5.77v-.04c-3.28-1.9-6.58-3.8-9.99-5.77" fill="#276469"/><path d="M2582.02,2341.76v161.59l9.99,5.78v-161.6l-9.99-5.77" fill="#27595f"/><path d="M2960.77,3649.52l504.95,291.05c2.16,1.24,4.26,2.2,6.29,2.88c1.32.44,2.6.77,3.84.98-3.17-.55-6.57-1.82-10.12-3.87l-504.96-291.04m535.02,280.62c-.5,2.27-1.23,4.3-2.18,6.07.64-1.06,1.13-2.19,1.47-3.4.3-.79.6-1.69.71-2.67m-6.26,11.16c-.79.66-1.64,1.22-2.53,1.69.73-.36,1.46-.78,2.12-1.28l.2-.2.21-.21" fill="#58737c"/><path d="M2582.02,2503.35v0l9.99,5.78v0l-9.99-5.78" fill="#31545f"/><path d="M2582.02,2597.45v85.17l9.99,5.77v-85.18l-9.99-5.76" fill="#31545f"/><path d="M2582.02,2514.9v82.55l9.99,5.76v-82.53l-9.99-5.78" fill="#31545f"/><path d="M2582.02,2682.62v612.2l.05-.05l9.94,5.73v-612.11l-9.99-5.77" fill="#3a5964"/><path d="M2582.02,2503.35v11.55l9.99,5.78v-11.55l-9.99-5.78" fill="#31545f"/><path d="M3486.49,3943.23c-5.57,2.63-12.75,1.92-20.75-2.63l-852.86-491.57c-17-9.82-30.86-33.8-30.86-53.43v-100.78l-39.37,23.07v100.07c0,19.63,13.76,43.52,30.76,53.33l852.97,491.57c8.8,5.16,16.69,5.26,22.37,1.82c5.55-3.34,31.16-18.01,37.74-21.45" fill="#26b6a6"/><path d="M3496.54,3923c-.13,19.46-13.86,27.34-30.81,17.56L2612.86,3449c-17.02-9.83-30.82-33.73-30.82-53.39l.03-100.84l914.47,527.05v101.18" fill="#26b6a6"/><path d="M3466,3940.75c.04.02.09.04.13.07-.04-.03-.09-.05-.13-.07m.7.38c.06.03.12.06.18.09-.06-.03-.12-.06-.18-.09m.3.16c1.72.9,3.4,1.62,5.03,2.17c0,0-.01-.01-.02-.01-1.62-.54-3.29-1.26-5.01-2.16" fill="#97aaae"/><path d="M2850.57,3586v.03l615.17,354.57c.09.04.17.1.26.15.04.02.09.04.13.07.19.11.38.21.57.31.06.03.12.06.18.09.04.03.08.05.12.07c1.72.9,3.39,1.62,5.01,2.16-2.03-.68-4.13-1.64-6.29-2.88l-504.95-291.05-110.2-63.52" fill="#97aaae"/><path d="M2700.98,3499.79v.02l139.59,80.46v-.03l-139.59-80.45" fill="#82999e"/><path d="M2627.16,3457.24v.02l73.82,42.55v-.02l-73.82-42.55" fill="#7b979b"/><path d="M2596.97,3434.73c4.65,5.93,10.09,10.94,15.91,14.3l14.28,8.23v-.02l-14.3-8.24c-5.82-3.36-11.25-8.36-15.89-14.27" fill="#82999f"/><path d="M2840.57,3580.24v.03l10,5.76v-.03l-10-5.76" fill="#82999e"/><path d="M2850.57,3631.02v.02l575.78,331.85c4.91,2.86,9.52,4.15,13.63,4.15c3.28,0,6.24-.82,8.78-2.33c5.32-3.27,29.3-16.9,36.84-21.01-7.74,4.14-31.52,17.78-36.85,20.98-2.52,1.53-5.47,2.36-8.75,2.36-4.11,0-8.72-1.31-13.62-4.18l-575.81-331.84" fill="#fff"/><path d="M2700.98,3544.81v.01l139.59,80.46v-.03l-139.59-80.44" fill="#97aaae"/><path d="M2627.16,3502.26v.02l73.82,42.54v-.01l-73.82-42.55" fill="#759b9b"/><path d="M2558.98,3458.81c4.31,5.18,9.24,9.53,14.47,12.51l53.71,30.96v-.02l-53.75-30.97c-5.21-3.01-10.13-7.35-14.43-12.48" fill="#96a9ad"/><path d="M2840.57,3625.25v.03l10,5.76v-.02l-10-5.77" fill="#97aaae"/><path d="M2591.22,3426.25l-39.21,22.56c2.06,3.55,4.41,6.92,6.97,10c4.3,5.13,9.22,9.47,14.43,12.48l53.75,30.97l73.82,42.55l139.59,80.44l10,5.77l575.81,331.84c4.9,2.87,9.51,4.18,13.62,4.18c3.28,0,6.23-.83,8.75-2.36c5.33-3.2,29.11-16.84,36.85-20.98.19-.1.37-.2.53-.29-.45.2-.91.38-1.39.54-1.62.55-3.38.83-5.25.83-2.33,0-4.83-.44-7.46-1.32-1.63-.55-3.31-1.27-5.03-2.17-.04-.02-.08-.04-.12-.07-.06-.03-.12-.06-.18-.09-.19-.1-.38-.2-.57-.31-.04-.03-.09-.05-.13-.07-.09-.05-.17-.11-.26-.15l-615.17-354.57-10-5.76-139.59-80.46-73.82-42.55-14.28-8.23c-5.82-3.36-11.26-8.37-15.91-14.3-2.09-2.66-4.02-5.51-5.75-8.48" fill="#5cc8bc"/><path d="M2591.24,3426.24l-.02.01c1.73,2.97,3.66,5.82,5.75,8.48c4.64,5.91,10.07,10.91,15.89,14.27l14.3,8.24l73.82,42.55l139.59,80.45l10,5.76l110.2,63.52L2612.9,3449c-8.41-4.92-16.13-13.21-21.66-22.76m895.13,517.04c-.52.26-1.07.48-1.63.67.48-.16.94-.34,1.39-.54.09-.04.17-.09.24-.13" fill="#5cc8bc"/><path d="M2582.01,3294.82l-39.36,23.07v-.16l-.05.03.02,100.22c0,3.79.53,7.72,1.49,11.68-.95-3.97-1.46-7.91-1.46-11.7v-100.07l39.36-23.07" fill="#475f68"/><path d="M2582.07,3294.77l-.05.03v100.8c0,7.93,2.26,16.58,6.08,24.7-3.81-8.11-6.06-16.75-6.06-24.69l.03-100.84" fill="#2f4953"/><path d="M2582.02,3294.82v0h-.01l-39.36,23.07v100.07c0,3.79.51,7.73,1.46,11.7c1.58,6.5,4.34,13.07,7.9,19.15v0l39.14-22.67c-1.1-1.9-2.12-3.85-3.05-5.84-3.82-8.12-6.08-16.77-6.08-24.7v-100.78" fill="#19b19d"/><path d="M2582.07,3294.77l-.03,100.84c0,7.94,2.25,16.58,6.06,24.69.93,1.99,1.95,3.94,3.05,5.84l.03-.01c.02.04.04.07.06.11l.04-.02c-5.73-9.69-9.21-20.65-9.21-30.63v-100.82" fill="#19b19d"/><path d="M2591.15,3426.14l-39.14,22.67l39.21-22.56c-.02-.03-.04-.07-.07-.11" fill="#4ac2ad"/><path d="M2591.18,3426.13l-.03.01c.03.04.05.08.07.11l.02-.01c-.02-.04-.04-.07-.06-.11" fill="#4ac2ad"/><path d="M3310.86,3808.21c-9.62-5.55-17.43-22.06-17.43-36.87c0-14.8,7.81-22.31,17.43-16.76c9.61,5.56,17.41,22.06,17.41,36.88c0,14.81-7.8,22.31-17.41,16.75" fill="#33535f"/><path d="M3373.56,3844.49c-9.62-5.56-17.42-22.07-17.42-36.88s7.8-22.31,17.42-16.75c9.62,5.55,17.41,22.06,17.41,36.87s-7.79,22.31-17.41,16.76" fill="#33535f"/><path d="M3436.27,3880.76c-9.62-5.56-17.42-22.07-17.42-36.88s7.8-22.31,17.42-16.75c9.62,5.55,17.42,22.05,17.42,36.87c0,14.8-7.8,22.31-17.42,16.76" fill="#33535f"/><path d="M2593.35,1892.63c-1.12.71-2.43,1.42-3.85,2.23-2.83,1.72-6.08,3.54-9.51,5.36l-.1.1c-1.72,1.01-3.44,2.02-5.16,2.93l-.41.21c-2.83,1.61-5.56,3.24-8.09,4.65-2.63,1.52-4.96,2.84-6.78,3.85-1.83,1.11-3.24,1.82-3.85,2.12-1.92,1.01-3.74,2.43-5.26,4.25-1.62,1.72-3.03,3.85-4.15,6.27-2.22,4.66-3.54,10.33-3.54,16.3v139.95l39.36,22.72v-185.03c0-5.63,1.2-10.95,3.19-15.48.02-.04.03-.07.05-.11v0c.09-.2.18-.39.27-.58c1.38-2.89,3.12-5.43,5.39-7.51l1.72-1.52.03-.02.69-.69m-11.34,433.54l-13.46,7.77c4.58,2.65,9.09,5.25,13.46,7.77v-15.54" fill="#394e57"/><path d="M2542.65,2080.85v238.14c8.97,5.18,17.6,10.16,25.9,14.95l13.46-7.77v-222.6l-39.36-22.72" fill="#374d56"/><path d="M2542.65,2318.99v.05l39.36,22.72v-.05c-12.29-7.09-25.44-14.68-39.36-22.72" fill="#21484e"/><path d="M2542.65,2319.04v161.54l39.36,22.76v-161.58l-39.36-22.72" fill="#21434a"/><path d="M2542.65,2480.58v0l39.36,22.76v0l-39.36-22.76" fill="#26404a"/><path d="M2542.65,2574.72v85.17l39.36,22.72v-85.17l-39.36-22.72" fill="#26404a"/><path d="M2542.65,2492.13v82.59l39.36,22.72v-82.54l-39.36-22.77" fill="#26404a"/><path d="M2542.65,2659.89v657.84l39.36-22.92v-612.2l-39.36-22.72" fill="#2b434c"/><path d="M2542.65,2480.58v11.55l39.36,22.77v-11.56l-39.36-22.76" fill="#26404a"/><path d="M2592.66,1893.32l-.03.02-1.72,1.52c-2.27,2.08-4.01,4.62-5.39,7.51c1.38-2.89,3.12-5.43,5.4-7.51l1.72-1.52.02-.02m-7.46,9.74c-1.99,4.53-3.19,9.85-3.19,15.48v185.03h.01v-185.03v0v0c0-5.63,1.19-10.95,3.18-15.48m-3.18,423.1l-.01.01v15.54l.01.01v-15.56" fill="#2b434c"/><path d="M2582.01,2103.57v222.6l.01-.01v-222.59h-.01" fill="#2b434c"/><path d="M2582.01,2341.71v.05h.01v-.04l-.01-.01" fill="#27414b"/><path d="M2582.01,2341.76v161.58l.01.01v-161.59h-.01" fill="#26404a"/><path d="M2582.01,2503.34v0l.01.01v0l-.01-.01" fill="#27404a"/><path d="M2582.01,2597.44v85.17l.01.01v-85.17l-.01-.01" fill="#27404a"/><path d="M2582.01,2514.9v82.54l.01.01v-82.55h-.01" fill="#27404a"/><path d="M2582.01,2682.61v612.2l.01-.01v-612.18l-.01-.01" fill="#28414b"/><path d="M2582.01,2503.34v11.56h.01v-11.55l-.01-.01" fill="#27404a"/><path d="M2585.25,1902.95c-.02.04-.03.07-.05.11-1.99,4.53-3.18,9.85-3.18,15.48.3-6.08,1.4-11.24,3.23-15.59m-3.23,15.59v0v185.03-185.03m0,407.62v0v15.56v0-15.56" fill="#2b434c"/><path d="M2582.01,3294.81l-39.36,22.92v.16l39.36-23.07v-.01" fill="#29414a"/><path d="M2582.02,3294.8l-.01.01v.01h.01v-.02" fill="#273f48"/><path d="M2657.77,3211.04c0,1.85.52,3.77,1.57,5.76l22.16,45.87l1.02,1.35.55.42l1.74-.13c.49-.47.73-1.21.73-2.25v-15.41c0-1.96-.14-3.55-.45-4.76-.3-1.22-.82-2.61-1.57-4.2l-11.69-24.24l11.69-10.73l1.57-2.39c.31-.86.45-2.27.45-4.24v-15.41c0-1.04-.24-2.08-.73-3.11s-1.07-1.74-1.74-2.13l-.55-.23-1.02.19-22.16,20.28c-1.05.78-1.57,2.09-1.57,3.93v11.43" fill="#26b6a6"/><path d="M2738.84,3326.07c.38,1.48.93,2.99,1.68,4.53.76,1.52,1.85,2.69,3.27,3.52l8.32,4.8l1.74-.12c.49-.47.73-1.22.73-2.26l-.22-1.69-38.01-162c-.29-1.33-.83-2.8-1.58-4.38s-1.86-2.81-3.37-3.67l-7.98-4.62-1.73.12c-.5.47-.74,1.23-.74,2.27l.22,1.68l37.67,161.82" fill="#26b6a6"/><path d="M2797.65,3280.38c0-1.85-.51-3.76-1.57-5.75l-22.15-45.86-1.02-1.37-.55-.41-1.75.12c-.49.47-.72,1.23-.72,2.27v15.4c0,1.97.15,3.56.44,4.77.3,1.21.83,2.61,1.57,4.2l11.7,24.23-11.7,10.74-1.57,2.38c-.29.86-.44,2.28-.44,4.24v15.41c0,1.04.23,2.07.72,3.1s1.08,1.75,1.75,2.14l.55.23l1.02-.18l22.15-20.29c1.06-.78,1.57-2.1,1.57-3.95v-11.42" fill="#26b6a6"/><path d="M2859.27,3291.03l2.15-.15c.6-.58.9-1.5.9-2.77v-16.97c0-1.27-.3-2.53-.9-3.81-.61-1.26-1.33-2.14-2.15-2.62l-10.45-6.03-2.13.14c-.61.58-.9,1.5-.9,2.78v16.97c0,1.26.29,2.53.9,3.8.59,1.27,1.3,2.14,2.13,2.62l10.45,6.04" fill="#26b6a6"/><path d="M2894.25,3311.22l2.14-.15c.61-.58.9-1.5.9-2.77v-16.97c0-1.27-.29-2.53-.9-3.81-.6-1.26-1.32-2.14-2.14-2.61l-10.45-6.04-2.14.15c-.6.58-.9,1.49-.9,2.77v16.97c0,1.26.3,2.53.9,3.8s1.31,2.14,2.14,2.63l10.45,6.03" fill="#26b6a6"/><path d="M2929.22,3331.41l2.14-.15c.6-.58.9-1.5.9-2.77v-16.97c0-1.27-.3-2.53-.9-3.8-.61-1.27-1.31-2.15-2.14-2.63l-10.45-6.03-2.14.14c-.6.59-.9,1.5-.9,2.78v16.97c0,1.26.3,2.53.9,3.8.59,1.27,1.31,2.14,2.14,2.62l10.45,6.04" fill="#26b6a6"/><path d="M2667.1,3087.32l512.44,295.86c6.05,3.49,10.95,1.01,10.95-5.54c0-6.56-4.9-14.7-10.95-18.19L2667.1,3063.59c-6.05-3.49-10.95-1.01-10.95,5.54c0,6.56,4.9,14.7,10.95,18.19" fill="#26b6a6"/><path d="M2831.51,2897.48l512.44,295.86c6.06,3.49,10.96,1.01,10.96-5.55c0-6.55-4.9-14.69-10.96-18.18l-512.44-295.86c-6.04-3.5-10.95-1.02-10.95,5.54c0,6.55,4.91,14.69,10.95,18.19" fill="#dadbd8"/><path d="M2831.51,2802.55l245.26,141.5c6.06,3.49,10.96,1.01,10.96-5.54s-4.9-14.7-10.96-18.19l-245.26-141.5c-6.04-3.49-10.95-1.01-10.95,5.55c0,6.55,4.91,14.69,10.95,18.18" fill="#dadbd8"/><path d="M2831.51,2707.63l245.26,141.5c6.06,3.49,10.96,1.01,10.96-5.54s-4.9-14.7-10.96-18.19l-245.26-141.5c-6.04-3.49-10.95-1.01-10.95,5.54s4.91,14.7,10.95,18.19" fill="#dadbd8"/><path d="M3222,3407.7l204.16,118.31c6.04,3.49,10.95,1.01,10.95-5.55c0-6.55-4.91-14.69-10.95-18.18L3222,3383.97c-6.06-3.5-10.96-1.02-10.96,5.54s4.9,14.7,10.96,18.19" fill="#26b6a6"/><path d="M2667.1,2043.25l512.44,295.86c6.05,3.49,10.95,1.01,10.95-5.54s-4.9-14.7-10.95-18.19L2667.1,2019.52c-6.05-3.49-10.95-1.01-10.95,5.54c0,6.56,4.9,14.7,10.95,18.19" fill="#26b6a6"/><path d="M3222,2363.63l204.16,118.3c6.04,3.5,10.95,1.02,10.95-5.53c0-6.56-4.91-14.7-10.95-18.2L3222,2339.9c-6.06-3.49-10.96-1.01-10.96,5.54s4.9,14.7,10.96,18.19" fill="#26b6a6"/><path d="M3222,2647.89l204.16,118.31c6.04,3.49,10.95,1.01,10.95-5.55c0-6.55-4.91-14.69-10.95-18.19L3222,2624.16c-6.06-3.5-10.96-1.01-10.96,5.54s4.9,14.7,10.96,18.19" fill="#26b6a6"/><path d="M3222,2552.99l204.16,118.3c6.04,3.5,10.95,1.02,10.95-5.54c0-6.55-4.91-14.69-10.95-18.19L3222,2529.25c-6.06-3.49-10.96-1.01-10.96,5.55c0,6.55,4.9,14.69,10.96,18.19" fill="#26b6a6"/><path d="M2667.1,2138.07l512.44,295.86c6.05,3.49,10.95,1.01,10.95-5.54s-4.9-14.7-10.95-18.19L2667.1,2114.34c-6.05-3.49-10.95-1.01-10.95,5.54c0,6.56,4.9,14.7,10.95,18.19" fill="#f3f2f1"/><path d="M3047.91,2547.67l114.7,66.22c6.06,3.49,10.96,1.01,10.96-5.54c0-6.56-4.9-14.7-10.96-18.19l-114.69-66.23c-6.06-3.49-10.96-1.01-10.96,5.54c0,6.56,4.9,14.7,10.95,18.2" fill="#26b6a6"/><path d="M2667.1,2992.18l298.89,172.69c6.06,3.5,10.96,1.02,10.96-5.53c0-6.56-4.9-14.7-10.96-18.2L2667.1,2968.45c-6.05-3.49-10.95-1.01-10.95,5.55c0,6.55,4.9,14.69,10.95,18.18" fill="#26b6a6"/><path d="M2661.95,2966.87c-3.45,0-5.8,2.59-5.8,7.13c0,6.55,4.9,14.69,10.95,18.18l298.89,172.69c1.86,1.08,3.62,1.59,5.15,1.59c3.46,0,5.81-2.59,5.81-7.12c0-6.56-4.9-14.7-10.96-18.2l-115.42-66.68-10-5.78-173.47-100.23c-1.86-1.07-3.61-1.58-5.15-1.58" fill="#87d6cb"/><path d="M2667.1,2897.44l101.4,58.61c6.05,3.49,10.96,1.01,10.96-5.54s-4.91-14.7-10.96-18.19l-101.4-58.61c-6.05-3.49-10.95-1.01-10.95,5.54s4.9,14.7,10.95,18.19" fill="#26b6a6"/><path d="M2661.96,2872.12c-3.46,0-5.81,2.59-5.81,7.13c0,6.55,4.9,14.7,10.95,18.19l101.4,58.61c1.86,1.07,3.61,1.58,5.15,1.58c3.45,0,5.81-2.58,5.81-7.12c0-6.55-4.91-14.7-10.96-18.19l-101.4-58.61c-1.86-1.08-3.61-1.59-5.14-1.59" fill="#87d6cb"/><path d="M2667.1,2802.52l101.4,58.61c6.05,3.5,10.96,1.01,10.96-5.54s-4.91-14.7-10.96-18.19l-101.4-58.62c-6.05-3.49-10.95-1.01-10.95,5.55c0,6.55,4.9,14.69,10.95,18.19" fill="#26b6a6"/><path d="M2661.96,2777.2c-3.46,0-5.81,2.59-5.81,7.13c0,6.55,4.9,14.69,10.95,18.19l101.4,58.61c1.86,1.08,3.61,1.59,5.15,1.59c3.45,0,5.81-2.59,5.81-7.13c0-6.55-4.91-14.7-10.96-18.19l-101.4-58.62c-1.86-1.07-3.61-1.58-5.14-1.58" fill="#87d6cb"/><path d="M2667.1,2707.6l101.4,58.61c6.05,3.5,10.96,1.01,10.96-5.54s-4.91-14.7-10.96-18.19l-101.4-58.61c-6.05-3.49-10.95-1.01-10.95,5.54s4.9,14.7,10.95,18.19" fill="#26b6a6"/><path d="M2661.96,2682.29c-3.46,0-5.81,2.58-5.81,7.12c0,6.55,4.9,14.7,10.95,18.19l101.4,58.61c1.86,1.08,3.61,1.59,5.15,1.59c3.45,0,5.81-2.59,5.81-7.13c0-6.55-4.91-14.7-10.96-18.19l-101.4-58.61c-1.86-1.08-3.61-1.58-5.14-1.58" fill="#87d6cb"/><path d="M2667.1,2612.68l101.4,58.61c6.05,3.5,10.96,1.02,10.96-5.54c0-6.55-4.91-14.69-10.96-18.19l-101.4-58.61c-6.05-3.5-10.95-1.01-10.95,5.54s4.9,14.7,10.95,18.19" fill="#26b6a6"/><path d="M2661.95,2587.37c-3.45,0-5.8,2.58-5.8,7.12c0,6.55,4.9,14.7,10.95,18.19l101.4,58.61c1.86,1.08,3.61,1.59,5.14,1.59c3.46,0,5.82-2.59,5.82-7.13c0-6.55-4.91-14.69-10.96-18.19l-101.4-58.61c-1.86-1.07-3.61-1.58-5.15-1.58" fill="#87d6cb"/><path d="M3008.45,3189.39l129.97,74.8c6.06,3.5,10.96,1.02,10.96-5.54c0-6.55-4.9-14.69-10.96-18.19l-129.97-74.8c-6.04-3.49-10.95-1.01-10.95,5.55c0,6.55,4.9,14.69,10.95,18.18" fill="#26b6a6"/><path d="M3003.31,3164.08c-3.46,0-5.81,2.59-5.81,7.13c0,6.55,4.9,14.69,10.95,18.18l129.97,74.8c1.86,1.08,3.62,1.59,5.15,1.59c3.46,0,5.81-2.59,5.81-7.13c0-6.55-4.9-14.69-10.96-18.19l-129.97-74.8c-1.85-1.07-3.61-1.58-5.14-1.58" fill="#87d6cb"/><path d="M2954.83,2684.04l298.9,172.69c6.04,3.5,10.94,1.01,10.94-5.54c0-6.56-4.9-14.7-10.94-18.19l-298.9-172.69c-6.05-3.5-10.96-1.01-10.96,5.54s4.91,14.7,10.96,18.19" fill="#f3f2f1"/><path d="M3127.26,2688.29l298.9,172.7c6.05,3.49,10.96,1.01,10.96-5.55c0-6.55-4.91-14.69-10.96-18.18l-298.89-172.7c-6.05-3.49-10.96-1.01-10.96,5.54c0,6.56,4.91,14.7,10.95,18.19" fill="#f3f2f1"/><path d="M3296.18,2881.25l129.98,74.8c6.04,3.49,10.95,1.01,10.95-5.54s-4.91-14.7-10.95-18.19l-129.98-74.8c-6.05-3.49-10.95-1.01-10.95,5.54s4.9,14.7,10.95,18.19" fill="#f3f2f1"/><path d="M2831.51,2992.36l298.9,172.69c6.04,3.5,10.95,1.01,10.95-5.54s-4.91-14.7-10.95-18.19l-298.9-172.69c-6.04-3.5-10.96-1.01-10.96,5.54s4.92,14.7,10.96,18.19" fill="#26b6a6"/><path d="M2826.37,2967.04c-3.46,0-5.82,2.59-5.82,7.13c0,6.55,4.92,14.7,10.96,18.19l298.9,172.69c1.85,1.07,3.61,1.58,5.14,1.58c3.46,0,5.81-2.58,5.81-7.12c0-6.55-4.91-14.7-10.95-18.19l-279.84-161.68-10-5.78-9.06-5.23c-1.86-1.08-3.61-1.59-5.14-1.59" fill="#87d6cb"/><path d="M3172.87,3189.57l129.97,74.8c6.05,3.5,10.96,1.01,10.96-5.54s-4.91-14.7-10.96-18.19l-129.97-74.8c-6.06-3.5-10.96-1.01-10.96,5.54c0,6.56,4.9,14.7,10.96,18.19" fill="#26b6a6"/><path d="M3167.72,3164.26c-3.46,0-5.81,2.58-5.81,7.12c0,6.56,4.9,14.7,10.96,18.19l129.97,74.8c1.86,1.08,3.61,1.58,5.15,1.58c3.45,0,5.81-2.58,5.81-7.12c0-6.55-4.91-14.7-10.96-18.19l-129.97-74.8c-1.86-1.07-3.62-1.58-5.15-1.58" fill="#87d6cb"/><path d="M4127.41,3852.07v113.86l-96.11,8.39c-1.51.13-2.87-.19-4-.82-3.72-2.04-94.73-54.1-95.91-54.81-3.55-2.13-4.83-7.3-1.56-10.84l101.9-110.46l95.68,54.68" fill="#26b6a6"/><path d="M4031.72,3797.39l-101.89,110.46c-4.37,4.72-.62,12.34,5.78,11.78l96.11-8.38v-113.86" fill="#26b6a6"/><path d="M4127.37,3965.97l-95.64-54.76-96.14,8.42c-1.21.08-2.34-.08-3.31-.49c7.69,4.53,91.52,52.5,94.99,54.36c1.13.64,2.51.97,4.05.81l96.05-8.34" fill="#26b6a6"/><path d="M4031.73,3911.21h-.01l-96.13,8.42c-.2.01-.39.02-.58.02-.69,0-1.35-.08-1.95-.24-.27-.08-.53-.16-.78-.27c7.69,4.53,91.52,52.5,94.99,54.36.94.54,2.05.85,3.28.85.25,0,.51-.01.77-.04l.59-.05v-62.95l-.18-.1" fill="#70cec3"/><path d="M4031.91,4039.72c0,22.09,15.52,48.96,34.65,60.01l28.21,16.29c19.13,11.05,50.16,11.05,69.3,0l300.69-173.63c19.14-11.05,34.66-37.91,34.66-60.01v-347.37c0-22.1-15.52-48.97-34.66-60.02l-28.21-16.29c-19.13-11.05-50.16-11.05-69.3,0l-88.77,51.25-115.38,66.67-96.54,55.71c-19.14,11.04-34.65,37.91-34.65,60.01v347.38" fill="#26b6a6"/><path d="M4402.12,3450.47c-10.16,0-20.33,1.82-28.94,5.44c3.38-1.28,6.6-1.9,9.57-1.9c11.35,0,19.15,9.03,19.15,24.7l.01,347.37c0,11.05-3.89,23.29-10.15,34.15l55.84,32.23l41.56,23.99c-.01,0-.01.01-.01.01l.11.06c6.28-10.85,10.15-23.09,10.15-34.14v-347.38c0-21.88-15.21-48.43-34.09-59.68-.19-.11-.37-.22-.56-.33l-28.21-16.29v0c-9.53-5.5-21.97-8.23-34.43-8.23" fill="#14b099"/><path d="M4042.95,4075.37c4.87,8.09,11.08,15.32,17.97,20.58-6.88-5.28-13.09-12.51-17.97-20.58m189.16,1.36l-68.04,39.29c-1.17.67-2.38,1.3-3.63,1.89c1.28-.59,2.51-1.23,3.7-1.91l67.97-39.27" fill="#fff"/><path d="M4391.69,3860.2c-6.15,10.99-14.88,20.37-24.41,25.87L4066.5,4059.75c-5.57,3.21-10.83,4.73-15.49,4.73-8.72,0-15.33-5.33-17.97-14.91c1.51,8.72,5.03,17.69,9.91,25.8c4.88,8.07,11.09,15.3,17.97,20.58c1.81,1.38,3.68,2.63,5.58,3.73l28.29,16.32c9.54,5.5,22.07,8.25,34.62,8.25c11,0,22.01-2.12,31.03-6.34c1.25-.59,2.46-1.22,3.63-1.89l68.04-39.29l232.64-134.41c9.53-5.5,18.09-14.87,24.4-25.86l-41.55-24-55.91-32.26" fill="#70cec3"/><path d="M4447.6,3892.46l41.55,24c0,0,0-.01.01-.01l-41.56-23.99" fill="#6ecdbc"/><path d="M4127.41,3203.64v113.87l-96.11,8.37c-1.51.13-2.87-.18-4-.81-3.72-2.04-94.73-54.1-95.91-54.81-3.55-2.13-4.83-7.3-1.56-10.84l101.9-110.46l95.68,54.68" fill="#26b6a6"/><path d="M4031.72,3148.96l-101.89,110.45c-4.37,4.73-.62,12.35,5.78,11.79l96.11-8.38v-113.86" fill="#e7e8e5"/><path d="M4127.37,3317.54l-95.64-54.76-96.14,8.42c-1.21.08-2.34-.09-3.31-.49c7.69,4.53,91.52,52.49,94.99,54.35c1.13.65,2.51.98,4.05.82l96.05-8.34" fill="#26b6a6"/><path d="M4127.37,3317.54l-95.64-54.76-96.14,8.42c-1.21.08-2.34-.09-3.31-.49c7.69,4.53,91.52,52.49,94.99,54.35c1.13.65,2.51.98,4.05.82l96.05-8.34" fill="#f3f2f1"/><path d="M4031.91,3391.29c0,22.09,15.52,48.96,34.65,60.01l28.21,16.29c19.13,11.05,50.16,11.05,69.3,0l300.69-173.63c19.14-11.05,34.66-37.91,34.66-60.01v-347.38c0-22.1-15.52-48.96-34.66-60.01l-28.21-16.29c-19.13-11.05-50.16-11.05-69.3,0l-88.77,51.25-115.38,66.66-96.54,55.72c-19.14,11.04-34.65,37.91-34.65,60.01v347.38" fill="#e7e8e5"/><path d="M4499.41,2886.57c0-22.1-15.51-48.96-34.65-60.01l-28.21-16.29c-17.3-9.99-44.21-10.86-63.37-2.79c16.31-6.17,28.72,3.03,28.72,22.79l.01,347.38c0,11.05-3.89,23.29-10.15,34.15l97.5,56.29c6.28-10.85,10.15-23.09,10.15-34.14v-347.38" fill="#dadbd8"/><path d="M4033.04,3401.13c4.05,14.71,17.46,19.4,33.46,10.18l300.78-173.68c9.53-5.5,18.26-14.87,24.41-25.86l97.47,56.25c-6.31,10.99-14.88,20.37-24.41,25.86l-300.61,173.69c-19.23,10.99-50.27,10.99-69.35,0l-28.29-16.33c-16.32-9.37-30.06-30.38-33.46-50.11" fill="#f3f2f1"/><path d="M4127.41,2555.21v113.86l-96.11,8.38c-1.51.13-2.87-.18-4-.81-3.72-2.04-94.73-54.1-95.91-54.81-3.55-2.13-4.83-7.3-1.56-10.85l101.9-110.45l95.68,54.68" fill="#26b6a6"/><path d="M4031.72,2500.53l-101.89,110.45c-4.37,4.73-.62,12.35,5.78,11.79l96.11-8.38v-113.86" fill="#273e47"/><path d="M4127.37,2669.11l-95.64-54.76-96.14,8.41c-1.21.09-2.34-.07-3.31-.48c7.69,4.53,91.51,52.5,94.99,54.36c1.13.64,2.51.97,4.05.81l96.05-8.34" fill="#26b6a6"/><path d="M4127.37,2669.11l-95.64-54.76-96.14,8.41c-1.21.09-2.34-.07-3.31-.48c7.69,4.53,91.51,52.5,94.99,54.36c1.13.64,2.51.97,4.05.81l96.05-8.34" fill="#33535f"/><path d="M4031.91,2742.85c0,22.1,15.52,48.97,34.65,60.02l28.21,16.29c19.13,11.05,50.16,11.05,69.3,0l300.69-173.63c19.14-11.05,34.66-37.91,34.66-60.02v-347.37c0-22.1-15.52-48.96-34.66-60.01l-28.21-16.29c-19.13-11.05-50.16-11.05-69.3,0l-88.77,51.25-115.38,66.67-96.54,55.7c-19.14,11.05-34.65,37.92-34.65,60.01v347.38" fill="#273e47"/><path d="M4499.41,2238.14c0-22.1-15.51-48.96-34.65-60.01l-28.21-16.29c-17.3-9.99-44.21-10.86-63.37-2.79c16.31-6.17,28.72,3.03,28.72,22.79l.01,347.38c0,11.05-3.89,23.29-10.15,34.15l97.5,56.29c6.28-10.86,10.15-23.09,10.15-34.15v-347.37" fill="#17282f"/><path d="M4033.04,2752.7c4.05,14.71,17.46,19.4,33.46,10.18l300.78-173.68c9.53-5.49,18.26-14.87,24.41-25.86l97.47,56.25c-6.31,10.99-14.88,20.37-24.41,25.86l-300.61,173.69c-19.23,10.99-50.27,10.99-69.35,0l-28.29-16.33c-16.32-9.38-30.06-30.39-33.46-50.11" fill="#33535f"/><g id="euMaAvkBJis336" opacity="0"><path d="M4216.89,3912.87l-114.51,15.95l16-211.19l98.5-127.96.01,323.2" fill="#33535f"/><path d="M4216.89,3912.87l114.5-116.26-16-192.72-98.5-14.22v323.2" fill="#273e47"/><path d="M4195.5,3752.34l21.63,51.47l21.63-76.43Zm68.56-114.41l26.22-15.14-73.15,257.85-73.15-173.39l26.22-15.13l15.79,37.58l62.28-35.95l15.79-55.82" fill="#fafaf9"/></g><g id="euMaAvkBJis340" opacity="0"><path d="M4216.89,3178.91l25.26,47.53l89.24-51.52-114.5-215.38-114.51,347.59l89.24-51.51l25.27-76.71" fill="#26b6a6"/><path d="M4216.89,2959.54l-114.51,347.59l89.24-51.51l25.27-76.71l25.26,47.53l89.24-51.52-114.5-215.38" fill="#19b19d"/><path d="M4216.89,3178.91l-25.27,76.71-39.79,22.96c31.93-96.9,65.06-197.47,65.06-197.47l65.05,122.36-39.79,22.97-25.26-47.53" fill="#273e47"/></g><g id="euMaAvkBJis344" opacity="0"><path d="M4270.7,2434.13c4.3,10.47,7.82,21.07,10.5,31.54c25.67-24.76,40.91-48.79,40.91-63.46c0-5.96-2.56-10.47-7.62-13.39-6.09-3.53-16.98-4.85-32.36-1.97-2.85,14.63-6.69,30.52-11.43,47.28m-26.73-48c10.71-4.79,20.91-8.5,30.28-11c5.04-31.11,4.44-52.5-.54-60.83-1.26-2.09-2.77-3.3-4.51-3.59-9.05-1.6-26.17,18.67-44.92,53.92c6.73,5.86,13.36,13.02,19.69,21.5m-54.2,31.13c6.56-16.4,13.4-31.73,20.3-45.64-8.26-5.96-16.43-9.46-24.02-9.99-8.31-.66-15.28,2.5-20.18,8.95-9.57,12.67-12.11,39.17-6.16,70.27c9.27-8.15,19.37-16.08,30.06-23.59m-26.19,77.26c-4.54-10.88-8.23-21.92-11.01-32.82-25.68,24.77-40.91,48.8-40.91,63.47c0,5.97,2.55,10.48,7.61,13.39c3.82,2.22,9.49,3.57,16.98,3.57c4.71,0,10.22-.61,16.35-1.81c2.76-14.19,6.44-29.58,10.98-45.8m26.22,46.66c-10.36,4.63-20.17,8.19-29.28,10.68-5,30.99-4.38,52.31.58,60.62c1.26,2.09,2.77,3.3,4.5,3.6l.92.06c1.56,0,3.37-.59,5.41-1.76c9.49-5.48,23.18-23.31,38.09-51.12-6.91-5.92-13.71-13.34-20.22-22.08m55.37-31.9c-6.77,17.05-13.77,32.79-20.79,46.92c5.62,3.93,11.23,6.85,16.71,8.37c2.97.83,5.86,1.24,8.58,1.24c4.21,0,8.07-.97,11.42-2.91c2.57-1.48,4.86-3.54,6.8-6.11c9.56-12.66,12.12-39.15,6.16-70.25-8.93,7.85-18.62,15.48-28.88,22.74m13.59-100.17c2.03,3.66,3.94,7.38,5.77,11.13c2.87-11,5.27-21.37,7.17-30.94-6.28,1.73-13.13,4.07-20.57,7.14c2.61,4.03,5.17,8.23,7.63,12.67m-42.5-8.82c5.05-2.91,9.99-5.54,14.89-8.03-4.45-5.47-8.99-10.41-13.57-14.52-4.55,9.25-9.14,19.26-13.7,30.05c4.06-2.57,8.19-5.07,12.38-7.5m-40.81,55.81c2.26-6.71,4.61-13.27,7-19.75-7.17,5.37-13.87,10.84-20.1,16.34c1.86,7.35,4.15,14.86,6.94,22.47c1.95-6.28,3.97-12.61,6.16-19.06m-.44,62.16c-1.82-3.27-3.53-6.6-5.19-9.95-2.69,10.44-4.96,20.31-6.77,29.45c6-1.69,12.5-3.95,19.55-6.85-2.59-4.01-5.13-8.21-7.59-12.65m42.51,8.82c-5.08,2.93-10.06,5.58-14.99,8.08c4.66,5.76,9.43,10.78,14.23,15.02c4.71-9.53,9.5-20.02,14.26-31.35-4.42,2.84-8.91,5.6-13.5,8.25m41.85-56.4c-2.24,6.63-4.54,13.08-6.86,19.44c6.7-5.08,13.02-10.25,18.91-15.43-1.76-6.93-3.91-13.99-6.49-21.15-1.77,5.65-3.61,11.35-5.56,17.14m-9.81-51.09c-3.51-6.32-7.23-12.07-11.03-17.51-6.63,3.18-13.61,6.82-21.01,11.09-7.39,4.26-14.46,8.73-21.24,13.32-3.9,10.05-7.74,20.59-11.46,31.6-3.65,10.82-6.89,21.2-9.79,31.14c2.76,6.2,5.78,12.41,9.19,18.56c3.49,6.31,7.18,12.08,10.94,17.5c6.67-3.19,13.64-6.78,21.1-11.08c7.76-4.49,15.21-9.2,22.32-14.04c3.85-9.96,7.67-20.43,11.4-31.47c3.44-10.18,6.53-19.98,9.29-29.39-2.88-6.59-6.09-13.19-9.71-19.72m34.3,57.93c7.1,35.95,4.15,69.07-10.05,87.86-7.14,9.47-16.49,14.41-27.15,14.41l-2.49-.09c-8.58-.6-17.57-4.21-26.55-10.42-20.29,37.76-40.15,61.03-54.32,61.03l-2.02-.16c-3.71-.63-6.76-2.92-9.09-6.82-6.85-11.46-7.24-36.32-2.04-69.06-15.72,2.98-28.78,2.35-37.43-2.65-7.59-4.38-11.6-11.93-11.6-21.82c0-21.7,19.12-51.52,48.79-79.94-7.11-35.95-4.16-69.07,10.04-87.87c3.29-4.35,7.07-7.79,11.25-10.2c4.87-2.82,10.18-4.22,15.87-4.22c3.39,0,6.93.5,10.59,1.52c6.29,1.74,12.7,5.1,19.07,9.6c16.14-30.15,32.15-51.76,45.09-59.23c3.47-1.99,6.7-3,9.66-3l2.06.18c3.69.62,6.75,2.91,9.08,6.81c6.87,11.5,7.24,36.47,1.99,69.36c5.7-1.03,11.07-1.63,15.93-1.63c8.23,0,15.17,1.51,20.5,4.58c7.6,4.39,11.61,11.94,11.61,21.83c0,21.7-19.12,51.51-48.79,79.93" fill="#26b6a6"/><path d="M4237.21,2451.95c0-14.96-9.1-21.84-20.33-15.36-11.22,6.48-20.32,23.87-20.32,38.84c0,14.96,9.1,21.84,20.32,15.36c11.23-6.48,20.33-23.87,20.33-38.84" fill="#26b6a6"/><path d="M4271.48,2296.46c-2.96,0-6.19,1.01-9.66,3-12.94,7.47-28.95,29.08-45.09,59.23-6.37-4.5-12.78-7.86-19.07-9.6-3.66-1.02-7.2-1.52-10.59-1.52-5.69,0-11,1.4-15.87,4.22-4.18,2.41-7.96,5.85-11.25,10.2-9.29,12.3-13.77,30.73-13.76,52.08c0,11.27,1.26,23.36,3.72,35.79v0v0c-29.67,28.42-48.79,58.24-48.79,79.94c0,9.89,4.01,17.44,11.6,21.82c5.22,3.02,12.05,4.45,20.1,4.45c5.29,0,11.1-.62,17.33-1.8v0v0c-2.34,14.7-3.55,27.82-3.55,38.85c0,13.52,1.82,23.9,5.59,30.21c2.33,3.9,5.38,6.19,9.09,6.82l2.02.16c14.17,0,34.03-23.27,54.32-61.03c8.98,6.21,17.97,9.82,26.55,10.42l2.49.09c10.66,0,20.01-4.94,27.15-14.41c9.29-12.29,13.77-30.72,13.76-52.07c0-11.27-1.25-23.36-3.71-35.79v0v0c29.67-28.42,48.79-58.23,48.79-79.93c0-9.89-4.01-17.44-11.61-21.83-5.33-3.07-12.27-4.58-20.5-4.58-4.86,0-10.23.6-15.93,1.63v0v0c2.38-14.9,3.6-28.18,3.59-39.31-.01-13.44-1.82-23.76-5.58-30.05-2.33-3.9-5.39-6.19-9.08-6.81l-2.06-.18m-47.2,68.17v0c18.07-33.96,34.61-54.01,43.89-54.01.35,0,.69.03,1.03.09c1.74.29,3.25,1.5,4.51,3.59c2.62,4.4,4.03,12.42,4.04,23.59.01,10.01-1.11,22.54-3.5,37.24-9.37,2.5-19.57,6.21-30.28,11-6.33-8.48-12.96-15.64-19.69-21.5v0m-67.76,44.74c-.01-16.97,3.24-30.7,9.35-38.79c4.47-5.89,10.67-9.04,18.04-9.04.71,0,1.42.03,2.14.09c7.59.53,15.76,4.03,24.02,9.99v0v0c-6.9,13.91-13.74,29.24-20.3,45.64-10.69,7.51-20.79,15.44-30.06,23.59-2.15-11.24-3.19-21.88-3.19-31.48m47.36-1.58c4.56-10.79,9.15-20.8,13.7-30.05c4.58,4.11,9.12,9.05,13.57,14.52v0v0c-4.9,2.49-9.84,5.12-14.89,8.03-4.19,2.43-8.32,4.93-12.38,7.5v0v0m66.82,26.34v0c4.74-16.76,8.58-32.65,11.43-47.28c5.79-1.08,10.94-1.57,15.44-1.57c7.46,0,13.12,1.34,16.92,3.54c5.06,2.92,7.62,7.43,7.62,13.39v0v0c0,14.67-15.24,38.7-40.91,63.46-2.68-10.47-6.2-21.07-10.5-31.54v0m1-44.83v0c-1.9,9.57-4.3,19.94-7.17,30.94-1.83-3.75-3.74-7.47-5.77-11.13-2.46-4.44-5.02-8.64-7.63-12.67v0v0c7.44-3.07,14.29-5.41,20.57-7.14v0m-96.67,99.93v0c2.9-9.94,6.14-20.32,9.79-31.14c3.72-11.01,7.56-21.55,11.46-31.6c6.78-4.59,13.85-9.06,21.24-13.32c7.4-4.27,14.38-7.91,21.01-11.09c3.8,5.44,7.52,11.19,11.03,17.51c3.62,6.53,6.83,13.13,9.71,19.72v0v0c-2.76,9.41-5.85,19.21-9.29,29.39-3.73,11.04-7.55,21.51-11.4,31.47-7.11,4.84-14.56,9.55-22.32,14.04-7.46,4.3-14.43,7.89-21.1,11.08-3.76-5.42-7.45-11.19-10.94-17.5-3.41-6.15-6.43-12.36-9.19-18.56v0m7.42-52.88v0c-2.39,6.48-4.74,13.04-7,19.75-2.19,6.45-4.21,12.78-6.16,19.06-2.79-7.61-5.08-15.12-6.94-22.47v0v0c6.23-5.5,12.93-10.97,20.1-16.34v0m70.06,53.77c2.32-6.36,4.62-12.81,6.86-19.44c1.95-5.79,3.79-11.49,5.56-17.14c2.58,7.16,4.73,14.22,6.49,21.15v0v0c-5.89,5.18-12.21,10.35-18.91,15.43v0v0m-140.85,35.05v0c0-14.67,15.23-38.7,40.91-63.47c2.78,10.9,6.47,21.94,11.01,32.82v0v0c-4.54,16.22-8.22,31.61-10.98,45.8-6.13,1.2-11.64,1.81-16.35,1.81-7.49,0-13.16-1.35-16.98-3.57-5.06-2.91-7.61-7.42-7.61-13.39v0m112.72,31.03v0c7.02-14.13,14.02-29.87,20.79-46.92c10.26-7.26,19.95-14.89,28.88-22.74c2.15,11.24,3.19,21.87,3.19,31.47c0,16.97-3.25,30.7-9.35,38.78-1.94,2.57-4.23,4.63-6.8,6.11-3.35,1.94-7.21,2.91-11.42,2.91-2.72,0-5.61-.41-8.58-1.24-5.48-1.52-11.09-4.44-16.71-8.37v0m-61.33-18.44c1.81-9.14,4.08-19.01,6.77-29.45c1.66,3.35,3.37,6.68,5.19,9.95c2.46,4.44,5,8.64,7.59,12.65v0v0c-7.05,2.9-13.55,5.16-19.55,6.85v0v0m67.97-18.93v0c-4.76,11.33-9.55,21.82-14.26,31.35-4.8-4.24-9.57-9.26-14.23-15.02v0v0c4.93-2.5,9.91-5.15,14.99-8.08c4.59-2.65,9.08-5.41,13.5-8.25v0m-73.96,69.89c.01-9.93,1.12-22.33,3.46-36.86c9.11-2.49,18.92-6.05,29.28-10.68c6.51,8.74,13.31,16.16,20.22,22.08v0v0c-14.91,27.81-28.6,45.64-38.09,51.12-2.04,1.17-3.85,1.76-5.41,1.76l-.92-.06c-1.73-.3-3.24-1.51-4.5-3.6-2.64-4.42-4.04-12.5-4.04-23.76" fill="#94dbd1"/><path d="M4224.95,2434.15c-2.47,0-5.2.78-8.07,2.44-11.22,6.48-20.32,23.87-20.32,38.84c0,11.14,5.05,17.8,12.26,17.8c2.47,0,5.2-.78,8.06-2.44c11.23-6.48,20.33-23.87,20.33-38.84c0-11.14-5.04-17.8-12.26-17.8" fill="#94dbd1"/></g></g></g>
<script><![CDATA[
!function(t,n){"object"==typeof exports&&"undefined"!=typeof module?module.exports=n():"function"==typeof __SVGATOR_DEFINE__&&__SVGATOR_DEFINE__.amd?__SVGATOR_DEFINE__(n):((t="undefined"!=typeof globalThis?globalThis:t||self).__SVGATOR_PLAYER__=t.__SVGATOR_PLAYER__||{},t.__SVGATOR_PLAYER__["5c7f360c"]=n())}(this,(function(){"use strict";function t(t,n){var e=Object.keys(t);if(Object.getOwnPropertySymbols){var r=Object.getOwnPropertySymbols(t);n&&(r=r.filter((function(n){return Object.getOwnPropertyDescriptor(t,n).enumerable}))),e.push.apply(e,r)}return e}function n(n){for(var e=1;e<arguments.length;e++){var r=null!=arguments[e]?arguments[e]:{};e%2?t(Object(r),!0).forEach((function(t){u(n,t,r[t])})):Object.getOwnPropertyDescriptors?Object.defineProperties(n,Object.getOwnPropertyDescriptors(r)):t(Object(r)).forEach((function(t){Object.defineProperty(n,t,Object.getOwnPropertyDescriptor(r,t))}))}return n}function e(t){return(e="function"==typeof Symbol&&"symbol"==typeof Symbol.iterator?function(t){return typeof t}:function(t){return t&&"function"==typeof Symbol&&t.constructor===Symbol&&t!==Symbol.prototype?"symbol":typeof t})(t)}function r(t,n){if(!(t instanceof n))throw new TypeError("Cannot call a class as a function")}function i(t,n){for(var e=0;e<n.length;e++){var r=n[e];r.enumerable=r.enumerable||!1,r.configurable=!0,"value"in r&&(r.writable=!0),Object.defineProperty(t,r.key,r)}}function o(t,n,e){return n&&i(t.prototype,n),e&&i(t,e),t}function u(t,n,e){return n in t?Object.defineProperty(t,n,{value:e,enumerable:!0,configurable:!0,writable:!0}):t[n]=e,t}function a(t){return(a=Object.setPrototypeOf?Object.getPrototypeOf:function(t){return t.__proto__||Object.getPrototypeOf(t)})(t)}function l(t,n){return(l=Object.setPrototypeOf||function(t,n){return t.__proto__=n,t})(t,n)}function s(){if("undefined"==typeof Reflect||!Reflect.construct)return!1;if(Reflect.construct.sham)return!1;if("function"==typeof Proxy)return!0;try{return Boolean.prototype.valueOf.call(Reflect.construct(Boolean,[],(function(){}))),!0}catch(t){return!1}}function f(t,n,e){return(f=s()?Reflect.construct:function(t,n,e){var r=[null];r.push.apply(r,n);var i=new(Function.bind.apply(t,r));return e&&l(i,e.prototype),i}).apply(null,arguments)}function c(t,n){if(n&&("object"==typeof n||"function"==typeof n))return n;if(void 0!==n)throw new TypeError("Derived constructors may only return object or undefined");return function(t){if(void 0===t)throw new ReferenceError("this hasn't been initialised - super() hasn't been called");return t}(t)}function h(t,n,e){return(h="undefined"!=typeof Reflect&&Reflect.get?Reflect.get:function(t,n,e){var r=function(t,n){for(;!Object.prototype.hasOwnProperty.call(t,n)&&null!==(t=a(t)););return t}(t,n);if(r){var i=Object.getOwnPropertyDescriptor(r,n);return i.get?i.get.call(e):i.value}})(t,n,e||t)}function v(t){return function(t){if(Array.isArray(t))return y(t)}(t)||function(t){if("undefined"!=typeof Symbol&&null!=t[Symbol.iterator]||null!=t["@@iterator"])return Array.from(t)}(t)||function(t,n){if(!t)return;if("string"==typeof t)return y(t,n);var e=Object.prototype.toString.call(t).slice(8,-1);"Object"===e&&t.constructor&&(e=t.constructor.name);if("Map"===e||"Set"===e)return Array.from(t);if("Arguments"===e||/^(?:Ui|I)nt(?:8|16|32)(?:Clamped)?Array$/.test(e))return y(t,n)}(t)||function(){throw new TypeError("Invalid attempt to spread non-iterable instance.\nIn order to be iterable, non-array objects must have a [Symbol.iterator]() method.")}()}function y(t,n){(null==n||n>t.length)&&(n=t.length);for(var e=0,r=new Array(n);e<n;e++)r[e]=t[e];return r}function g(t,n,e){if(Number.isInteger(t))return t;var r=Math.pow(10,n);return Math[e]((+t+Number.EPSILON)*r)/r}Number.isInteger||(Number.isInteger=function(t){return"number"==typeof t&&isFinite(t)&&Math.floor(t)===t}),Number.EPSILON||(Number.EPSILON=2220446049250313e-31);var d=p(Math.pow(10,-6));function p(t){var n=arguments.length>1&&void 0!==arguments[1]?arguments[1]:6;return g(t,n,"round")}function m(t,n){var e=arguments.length>2&&void 0!==arguments[2]?arguments[2]:d;return Math.abs(t-n)<e}p(Math.pow(10,-2)),p(Math.pow(10,-4));var b=Math.PI/180;function w(t){return t}function A(t,n,e){var r=1-e;return 3*e*r*(t*r+n*e)+e*e*e}function _(){var t=arguments.length>0&&void 0!==arguments[0]?arguments[0]:0,n=arguments.length>1&&void 0!==arguments[1]?arguments[1]:0,e=arguments.length>2&&void 0!==arguments[2]?arguments[2]:1,r=arguments.length>3&&void 0!==arguments[3]?arguments[3]:1;return t<0||t>1||e<0||e>1?null:m(t,n)&&m(e,r)?w:function(i){if(i<=0)return t>0?i*n/t:0===n&&e>0?i*r/e:0;if(i>=1)return e<1?1+(i-1)*(r-1)/(e-1):1===e&&t<1?1+(i-1)*(n-1)/(t-1):1;for(var o,u=0,a=1;u<a;){var l=A(t,e,o=(u+a)/2);if(m(i,l))break;l<i?u=o:a=o}return A(n,r,o)}}function x(){return 1}function k(t){return 1===t?1:0}function S(){var t=arguments.length>0&&void 0!==arguments[0]?arguments[0]:1,n=arguments.length>1&&void 0!==arguments[1]?arguments[1]:0;if(1===t){if(0===n)return k;if(1===n)return x}var e=1/t;return function(t){return t>=1?1:(t+=n*e)-t%e}}var O=Math.sin,j=Math.cos,M=Math.acos,E=Math.asin,P=Math.tan,I=Math.atan2,R=Math.PI/180,F=180/Math.PI,N=Math.sqrt,T=function(){function t(){var n=arguments.length>0&&void 0!==arguments[0]?arguments[0]:1,e=arguments.length>1&&void 0!==arguments[1]?arguments[1]:0,i=arguments.length>2&&void 0!==arguments[2]?arguments[2]:0,o=arguments.length>3&&void 0!==arguments[3]?arguments[3]:1,u=arguments.length>4&&void 0!==arguments[4]?arguments[4]:0,a=arguments.length>5&&void 0!==arguments[5]?arguments[5]:0;r(this,t),this.m=[n,e,i,o,u,a],this.i=null,this.w=null,this.s=null}return o(t,[{key:"determinant",get:function(){var t=this.m;return t[0]*t[3]-t[1]*t[2]}},{key:"isIdentity",get:function(){if(null===this.i){var t=this.m;this.i=1===t[0]&&0===t[1]&&0===t[2]&&1===t[3]&&0===t[4]&&0===t[5]}return this.i}},{key:"point",value:function(t,n){var e=this.m;return{x:e[0]*t+e[2]*n+e[4],y:e[1]*t+e[3]*n+e[5]}}},{key:"translateSelf",value:function(){var t=arguments.length>0&&void 0!==arguments[0]?arguments[0]:0,n=arguments.length>1&&void 0!==arguments[1]?arguments[1]:0;if(!t&&!n)return this;var e=this.m;return e[4]+=e[0]*t+e[2]*n,e[5]+=e[1]*t+e[3]*n,this.w=this.s=this.i=null,this}},{key:"rotateSelf",value:function(){var t=arguments.length>0&&void 0!==arguments[0]?arguments[0]:0;if(t%=360){var n=O(t*=R),e=j(t),r=this.m,i=r[0],o=r[1];r[0]=i*e+r[2]*n,r[1]=o*e+r[3]*n,r[2]=r[2]*e-i*n,r[3]=r[3]*e-o*n,this.w=this.s=this.i=null}return this}},{key:"scaleSelf",value:function(){var t=arguments.length>0&&void 0!==arguments[0]?arguments[0]:1,n=arguments.length>1&&void 0!==arguments[1]?arguments[1]:1;if(1!==t||1!==n){var e=this.m;e[0]*=t,e[1]*=t,e[2]*=n,e[3]*=n,this.w=this.s=this.i=null}return this}},{key:"skewSelf",value:function(t,n){if(n%=360,(t%=360)||n){var e=this.m,r=e[0],i=e[1],o=e[2],u=e[3];t&&(t=P(t*R),e[2]+=r*t,e[3]+=i*t),n&&(n=P(n*R),e[0]+=o*n,e[1]+=u*n),this.w=this.s=this.i=null}return this}},{key:"resetSelf",value:function(){var t=arguments.length>0&&void 0!==arguments[0]?arguments[0]:1,n=arguments.length>1&&void 0!==arguments[1]?arguments[1]:0,e=arguments.length>2&&void 0!==arguments[2]?arguments[2]:0,r=arguments.length>3&&void 0!==arguments[3]?arguments[3]:1,i=arguments.length>4&&void 0!==arguments[4]?arguments[4]:0,o=arguments.length>5&&void 0!==arguments[5]?arguments[5]:0,u=this.m;return u[0]=t,u[1]=n,u[2]=e,u[3]=r,u[4]=i,u[5]=o,this.w=this.s=this.i=null,this}},{key:"recomposeSelf",value:function(){var t=arguments.length>0&&void 0!==arguments[0]?arguments[0]:null,n=arguments.length>1&&void 0!==arguments[1]?arguments[1]:null,e=arguments.length>2&&void 0!==arguments[2]?arguments[2]:null,r=arguments.length>3&&void 0!==arguments[3]?arguments[3]:null,i=arguments.length>4&&void 0!==arguments[4]?arguments[4]:null;return this.isIdentity||this.resetSelf(),t&&(t.x||t.y)&&this.translateSelf(t.x,t.y),n&&this.rotateSelf(n),e&&(e.x&&this.skewSelf(e.x,0),e.y&&this.skewSelf(0,e.y)),!r||1===r.x&&1===r.y||this.scaleSelf(r.x,r.y),i&&(i.x||i.y)&&this.translateSelf(i.x,i.y),this}},{key:"decompose",value:function(){var t=arguments.length>0&&void 0!==arguments[0]?arguments[0]:0,n=arguments.length>1&&void 0!==arguments[1]?arguments[1]:0,e=this.m,r=e[0]*e[0]+e[1]*e[1],i=[[e[0],e[1]],[e[2],e[3]]],o=N(r);if(0===o)return{origin:{x:p(e[4]),y:p(e[5])},translate:{x:p(t),y:p(n)},scale:{x:0,y:0},skew:{x:0,y:0},rotate:0};i[0][0]/=o,i[0][1]/=o;var u=e[0]*e[3]-e[1]*e[2]<0;u&&(o=-o);var a=i[0][0]*i[1][0]+i[0][1]*i[1][1];i[1][0]-=i[0][0]*a,i[1][1]-=i[0][1]*a;var l=N(i[1][0]*i[1][0]+i[1][1]*i[1][1]);if(0===l)return{origin:{x:p(e[4]),y:p(e[5])},translate:{x:p(t),y:p(n)},scale:{x:p(o),y:0},skew:{x:0,y:0},rotate:0};i[1][0]/=l,i[1][1]/=l,a/=l;var s=0;return i[1][1]<0?(s=M(i[1][1])*F,i[0][1]<0&&(s=360-s)):s=E(i[0][1])*F,u&&(s=-s),a=I(a,N(i[0][0]*i[0][0]+i[0][1]*i[0][1]))*F,u&&(a=-a),{origin:{x:p(e[4]),y:p(e[5])},translate:{x:p(t),y:p(n)},scale:{x:p(o),y:p(l)},skew:{x:p(a),y:0},rotate:p(s)}}},{key:"clone",value:function(){var t=this.m;return new this.constructor(t[0],t[1],t[2],t[3],t[4],t[5])}},{key:"toString",value:function(){var t=arguments.length>0&&void 0!==arguments[0]?arguments[0]:" ";if(null===this.s){var n=this.m.map((function(t){return p(t)}));1===n[0]&&0===n[1]&&0===n[2]&&1===n[3]?this.s="translate("+n[4]+t+n[5]+")":this.s="matrix("+n.join(t)+")"}return this.s}}],[{key:"create",value:function(t){return t?Array.isArray(t)?f(this,v(t)):t instanceof this?t.clone():(new this).recomposeSelf(t.origin,t.rotate,t.skew,t.scale,t.translate):new this}}]),t}();function q(t,n,e){return t>=.5?e:n}function B(t,n,e){return 0===t||n===e?n:t*(e-n)+n}function D(t,n,e){var r=B(t,n,e);return r<=0?0:r}function L(t,n,e){var r=B(t,n,e);return r<=0?0:r>=1?1:r}function C(t,n,e){return 0===t?n:1===t?e:{x:B(t,n.x,e.x),y:B(t,n.y,e.y)}}function V(t,n,e){var r=function(t,n,e){return Math.round(B(t,n,e))}(t,n,e);return r<=0?0:r>=255?255:r}function G(t,n,e){return 0===t?n:1===t?e:{r:V(t,n.r,e.r),g:V(t,n.g,e.g),b:V(t,n.b,e.b),a:B(t,null==n.a?1:n.a,null==e.a?1:e.a)}}function z(t,n){for(var e=[],r=0;r<t;r++)e.push(n);return e}function Y(t,n){if(--n<=0)return t;var e=(t=Object.assign([],t)).length;do{for(var r=0;r<e;r++)t.push(t[r])}while(--n>0);return t}var $,U=function(){function t(n){r(this,t),this.list=n,this.length=n.length}return o(t,[{key:"setAttribute",value:function(t,n){for(var e=this.list,r=0;r<this.length;r++)e[r].setAttribute(t,n)}},{key:"removeAttribute",value:function(t){for(var n=this.list,e=0;e<this.length;e++)n[e].removeAttribute(t)}},{key:"style",value:function(t,n){for(var e=this.list,r=0;r<this.length;r++)e[r].style[t]=n}}]),t}(),Q=/-./g,H=function(t,n){return n.toUpperCase()};function J(t){return"function"==typeof t?t:q}function Z(t){return t?"function"==typeof t?t:Array.isArray(t)?function(t){var n=arguments.length>1&&void 0!==arguments[1]?arguments[1]:w;if(!Array.isArray(t))return n;switch(t.length){case 1:return S(t[0])||n;case 2:return S(t[0],t[1])||n;case 4:return _(t[0],t[1],t[2],t[3])||n}return n}(t,null):function(t,n){var e=arguments.length>2&&void 0!==arguments[2]?arguments[2]:w;switch(t){case"linear":return w;case"steps":return S(n.steps||1,n.jump||0)||e;case"bezier":case"cubic-bezier":return _(n.x1||0,n.y1||0,n.x2||0,n.y2||0)||e}return e}(t.type,t.value,null):null}function K(t,n,e){var r=arguments.length>3&&void 0!==arguments[3]&&arguments[3],i=n.length-1;if(t<=n[0].t)return r?[0,0,n[0].v]:n[0].v;if(t>=n[i].t)return r?[i,1,n[i].v]:n[i].v;var o,u=n[0],a=null;for(o=1;o<=i;o++){if(!(t>n[o].t)){a=n[o];break}u=n[o]}return null==a?r?[i,1,n[i].v]:n[i].v:u.t===a.t?r?[o,1,a.v]:a.v:(t=(t-u.t)/(a.t-u.t),u.e&&(t=u.e(t)),r?[o,t,e(t,u.v,a.v)]:e(t,u.v,a.v))}function W(t,n){var e=arguments.length>2&&void 0!==arguments[2]?arguments[2]:null;return t&&t.length?"function"!=typeof n?null:("function"!=typeof e&&(e=null),function(r){var i=K(r,t,n);return null!=i&&e&&(i=e(i)),i}):null}function X(t,n){return t.t-n.t}function tt(t,n,r,i,o){var u,a="@"===r[0],l="#"===r[0],s=$[r],f=q;switch(a?(u=r.substr(1),r=u.replace(Q,H)):l&&(r=r.substr(1)),e(s)){case"function":if(f=s(i,o,K,Z,r,a,n,t),l)return f;break;case"string":f=W(i,J(s));break;case"object":if((f=W(i,J(s.i),s.f))&&"function"==typeof s.u)return s.u(n,f,r,a,t)}return f?function(t,n,e){if(arguments.length>3&&void 0!==arguments[3]&&arguments[3])return t instanceof U?function(r){return t.style(n,e(r))}:function(r){return t.style[n]=e(r)};if(Array.isArray(n)){var r=n.length;return function(i){var o=e(i);if(null==o)for(var u=0;u<r;u++)t[u].removeAttribute(n);else for(var a=0;a<r;a++)t[a].setAttribute(n,o)}}return function(r){var i=e(r);null==i?t.removeAttribute(n):t.setAttribute(n,i)}}(n,r,f,a):null}function nt(t,n,r,i){if(!i||"object"!==e(i))return null;var o=null,u=null;return Array.isArray(i)?u=function(t){if(!t||!t.length)return null;for(var n=0;n<t.length;n++)t[n].e&&(t[n].e=Z(t[n].e));return t.sort(X)}(i):(u=i.keys,o=i.data||null),u?tt(t,n,r,u,o):null}function et(t,n,e){if(!e)return null;var r=[];for(var i in e)if(e.hasOwnProperty(i)){var o=nt(t,n,i,e[i]);o&&r.push(o)}return r.length?r:null}function rt(t,n){if(!n.settings.duration||n.settings.duration<0)return null;var e,r,i,o,u,a=function(t,n){if(!n)return null;var e=[];if(Array.isArray(n))for(var r=n.length,i=0;i<r;i++){var o=n[i];if(2===o.length){var u=null;if("string"==typeof o[0])u=t.getElementById(o[0]);else if(Array.isArray(o[0])){u=[];for(var a=0;a<o[0].length;a++)if("string"==typeof o[0][a]){var l=t.getElementById(o[0][a]);l&&u.push(l)}u=u.length?1===u.length?u[0]:new U(u):null}if(u){var s=et(t,u,o[1]);s&&(e=e.concat(s))}}}else for(var f in n)if(n.hasOwnProperty(f)){var c=t.getElementById(f);if(c){var h=et(t,c,n[f]);h&&(e=e.concat(h))}}return e.length?e:null}(t,n.elements);return a?(e=a,r=n.settings,i=r.duration,o=e.length,u=null,function(t,n){var a=r.iterations||1/0,l=(r.alternate&&a%2==0)^r.direction>0?i:0,s=t%i,f=1+(t-s)/i;n*=r.direction,r.alternate&&f%2==0&&(n=-n);var c=!1;if(f>a)s=l,c=!0,-1===r.fill&&(s=r.direction>0?0:i);else if(n<0&&(s=i-s),s===u)return!1;u=s;for(var h=0;h<o;h++)e[h](s);return c}):null}function it(t,n){for(var e=n.querySelectorAll("svg"),r=0;r<e.length;r++)if(e[r].id===t.root&&!e[r].svgatorAnimation)return e[r].svgatorAnimation=!0,e[r];return null}function ot(t){var n=function(t){return t.shadowRoot};return document?Array.from(t.querySelectorAll(":not("+["a","area","audio","br","canvas","circle","datalist","embed","g","head","hr","iframe","img","input","link","object","path","polygon","rect","script","source","style","svg","title","track","video"].join()+")")).filter(n).map(n):[]}function ut(t){var n=arguments.length>1&&void 0!==arguments[1]?arguments[1]:document,e=arguments.length>2&&void 0!==arguments[2]?arguments[2]:0,r=it(t,n);if(r)return r;if(e>=20)return null;for(var i=ot(n),o=0;o<i.length;o++){var u=ut(t,i[o],e+1);if(u)return u}return null}function at(t,n){if($=n,!t||!t.root||!Array.isArray(t.animations))return null;var e=ut(t);if(!e)return null;var r=t.animations.map((function(t){return rt(e,t)})).filter((function(t){return!!t}));return r.length?{svg:e,animations:r,animationSettings:t.animationSettings,options:t.options||void 0}:null}function lt(t){var n=arguments.length>1&&void 0!==arguments[1]?arguments[1]:null,e=arguments.length>2&&void 0!==arguments[2]?arguments[2]:Number,r=arguments.length>3&&void 0!==arguments[3]?arguments[3]:"undefined"!=typeof BigInt&&BigInt,i="0x"+(t.replace(/[^0-9a-fA-F]+/g,"")||27);return n&&r&&e.isSafeInteger&&!e.isSafeInteger(+i)?e(r(i))%n+n:+i}function st(t,n,e){return!t||!e||n>t.length?t:t.substring(0,n)+st(t.substring(n+1),e,e)}function ft(t){var n=arguments.length>1&&void 0!==arguments[1]?arguments[1]:27;return!t||t%n?t%n:[0,1].includes(n)?n:ft(t/n,n)}function ct(t,n,e){if(t&&t.length){var r=lt(e),i=ft(r)+5,o=st(t,ft(r,5),i);return o=o.replace(/\x7c$/g,"==").replace(/\x2f$/g,"="),o=function(t,n,e){var r=+("0x"+t.substring(0,4));t=t.substring(4);for(var i=lt(n,r)%r+e%27,o=[],u=0;u<t.length;u+=2)if("|"!==t[u]){var a=+("0x"+t[u]+t[u+1])-i;o.push(a)}else{var l=+("0x"+t.substring(u+1,u+1+4))-i;u+=3,o.push(l)}return String.fromCharCode.apply(String,o)}(o=(o=atob(o)).replace(/[\x41-\x5A]/g,""),n,r),o=JSON.parse(o)}}var ht=[{key:"alternate",def:!1},{key:"fill",def:1},{key:"iterations",def:0},{key:"direction",def:1},{key:"speed",def:1},{key:"fps",def:100}],vt=function(){function t(n,e){var i=this,o=arguments.length>2&&void 0!==arguments[2]?arguments[2]:null;r(this,t),this._id=0,this._running=!1,this._rollingBack=!1,this._animations=n,this._settings=e,(!o||o<"2022-05-02")&&delete this._settings.speed,ht.forEach((function(t){i._settings[t.key]=i._settings[t.key]||t.def})),this.duration=e.duration,this.offset=e.offset||0,this.rollbackStartOffset=0}return o(t,[{key:"alternate",get:function(){return this._settings.alternate}},{key:"fill",get:function(){return this._settings.fill}},{key:"iterations",get:function(){return this._settings.iterations}},{key:"direction",get:function(){return this._settings.direction}},{key:"speed",get:function(){return this._settings.speed}},{key:"fps",get:function(){return this._settings.fps}},{key:"maxFiniteDuration",get:function(){return this.iterations>0?this.iterations*this.duration:this.duration}},{key:"_apply",value:function(t){for(var n=arguments.length>1&&void 0!==arguments[1]?arguments[1]:{},e=this._animations,r=e.length,i=0,o=0;o<r;o++)n[o]?i++:(n[o]=e[o](t,1),n[o]&&i++);return i}},{key:"_rollback",value:function(t){var n=this,e=1/0,r=null;this.rollbackStartOffset=t,this._rollingBack=!0,this._running=!0;this._id=window.requestAnimationFrame((function i(o){if(n._rollingBack){null==r&&(r=o);var u=Math.round(t-(o-r)*n.speed);if(u>n.duration&&e!==1/0){var a=!!n.alternate&&u/n.duration%2>1,l=u%n.duration;u=(l+=a?n.duration:0)||n.duration}var s=(n.fps?1e3/n.fps:0)*n.speed,f=Math.max(0,u);f<=e-s&&(n.offset=f,e=f,n._apply(f));var c=n.iterations>0&&-1===n.fill&&u>=n.maxFiniteDuration;(u<=0||n.offset<u||c)&&n.stop(),n._id=window.requestAnimationFrame(i)}}))}},{key:"_start",value:function(){var t=this,n=arguments.length>0&&void 0!==arguments[0]?arguments[0]:0,e=-1/0,r=null,i={};this._running=!0;var o=function o(u){null==r&&(r=u);var a=Math.round((u-r)*t.speed+n),l=(t.fps?1e3/t.fps:0)*t.speed;if(a>=e+l&&!t._rollingBack&&(t.offset=a,e=a,t._apply(a,i)===t._animations.length))return void t.pause(!0);t._id=window.requestAnimationFrame(o)};this._id=window.requestAnimationFrame(o)}},{key:"_pause",value:function(){this._id&&window.cancelAnimationFrame(this._id),this._running=!1}},{key:"play",value:function(){if(!this._running)return this._rollingBack?this._rollback(this.offset):this._start(this.offset)}},{key:"stop",value:function(){this._pause(),this.offset=0,this.rollbackStartOffset=0,this._rollingBack=!1,this._apply(0)}},{key:"reachedToEnd",value:function(){return this.iterations>0&&this.offset>=this.iterations*this.duration}},{key:"restart",value:function(){var t=arguments.length>0&&void 0!==arguments[0]&&arguments[0];this.stop(t),this.play(t)}},{key:"pause",value:function(){this._pause()}},{key:"reverse",value:function(){this.direction=-this.direction}}],[{key:"build",value:function(t,n){delete t.animationSettings,t.options=ct(t.options,t.root,"5c7f360c"),t.animations.map((function(n){n.settings=ct(n.s,t.root,"5c7f360c"),delete n.s,t.animationSettings||(t.animationSettings=n.settings)}));var e=t.version;if(!(t=at(t,n)))return null;var r=t.options||{},i=new this(t.animations,t.animationSettings,e);return{el:t.svg,options:r,player:i}}},{key:"push",value:function(t){return this.build(t)}},{key:"init",value:function(){var t=this,n=window.__SVGATOR_PLAYER__&&window.__SVGATOR_PLAYER__["5c7f360c"];Array.isArray(n)&&n.splice(0).forEach((function(n){return t.build(n)}))}}]),t}();function yt(t){return p(t)+""}function gt(t){var n=arguments.length>1&&void 0!==arguments[1]?arguments[1]:" ";return t&&t.length?t.map(yt).join(n):""}function dt(t){if(!t)return"transparent";if(null==t.a||t.a>=1){var n=function(t){return 1===(t=parseInt(t).toString(16)).length?"0"+t:t},e=function(t){return t.charAt(0)===t.charAt(1)},r=n(t.r),i=n(t.g),o=n(t.b);return e(r)&&e(i)&&e(o)&&(r=r.charAt(0),i=i.charAt(0),o=o.charAt(0)),"#"+r+i+o}return"rgba("+t.r+","+t.g+","+t.b+","+t.a+")"}function pt(t){return t?"url(#"+t+")":"none"}!function(){for(var t=0,n=["ms","moz","webkit","o"],e=0;e<n.length&&!window.requestAnimationFrame;++e)window.requestAnimationFrame=window[n[e]+"RequestAnimationFrame"],window.cancelAnimationFrame=window[n[e]+"CancelAnimationFrame"]||window[n[e]+"CancelRequestAnimationFrame"];window.requestAnimationFrame||(window.requestAnimationFrame=function(n){var e=Date.now(),r=Math.max(0,16-(e-t)),i=window.setTimeout((function(){n(e+r)}),r);return t=e+r,i},window.cancelAnimationFrame=window.clearTimeout)}();var mt={f:null,i:function(t,n,e){return 0===t?n:1===t?e:{x:D(t,n.x,e.x),y:D(t,n.y,e.y)}},u:function(t,n){return function(e){var r=n(e);t.setAttribute("rx",yt(r.x)),t.setAttribute("ry",yt(r.y))}}},bt={f:null,i:function(t,n,e){return 0===t?n:1===t?e:{width:D(t,n.width,e.width),height:D(t,n.height,e.height)}},u:function(t,n){return function(e){var r=n(e);t.setAttribute("width",yt(r.width)),t.setAttribute("height",yt(r.height))}}};Object.freeze({M:2,L:2,Z:0,H:1,V:1,C:6,Q:4,T:2,S:4,A:7});var wt={},At=null;function _t(t){var n=function(){if(At)return At;if("object"!==("undefined"==typeof document?"undefined":e(document))||!document.createElementNS)return{};var t=document.createElementNS("http://www.w3.org/2000/svg","svg");return t&&t.style?(t.style.position="absolute",t.style.opacity="0.01",t.style.zIndex="-9999",t.style.left="-9999px",t.style.width="1px",t.style.height="1px",At={svg:t}):{}}().svg;if(!n)return function(t){return null};var r=document.createElementNS(n.namespaceURI,"path");r.setAttributeNS(null,"d",t),r.setAttributeNS(null,"fill","none"),r.setAttributeNS(null,"stroke","none"),n.appendChild(r);var i=r.getTotalLength();return function(t){var n=r.getPointAtLength(i*t);return{x:n.x,y:n.y}}}function xt(t){return wt[t]?wt[t]:wt[t]=_t(t)}function kt(t,n,e,r){if(!t||!r)return!1;var i=["M",t.x,t.y];if(n&&e&&(i.push("C"),i.push(n.x),i.push(n.y),i.push(e.x),i.push(e.y)),n?!e:e){var o=n||e;i.push("Q"),i.push(o.x),i.push(o.y)}return n||e||i.push("L"),i.push(r.x),i.push(r.y),i.join(" ")}function St(t,n,e,r){var i=arguments.length>4&&void 0!==arguments[4]?arguments[4]:1,o=kt(t,n,e,r),u=xt(o);try{return u(i)}catch(t){return null}}function Ot(t,n,e){return t+(n-t)*e}function jt(t,n,e){var r=arguments.length>3&&void 0!==arguments[3]&&arguments[3],i={x:Ot(t.x,n.x,e),y:Ot(t.y,n.y,e)};return r&&(i.a=Mt(t,n)),i}function Mt(t,n){return Math.atan2(n.y-t.y,n.x-t.x)}function Et(t,n,e,r){var i=1-r;return i*i*t+2*i*r*n+r*r*e}function Pt(t,n,e,r){return 2*(1-r)*(n-t)+2*r*(e-n)}function It(t,n,e,r){var i=arguments.length>4&&void 0!==arguments[4]&&arguments[4],o=St(t,n,null,e,r);return o||(o={x:Et(t.x,n.x,e.x,r),y:Et(t.y,n.y,e.y,r)}),i&&(o.a=Rt(t,n,e,r)),o}function Rt(t,n,e,r){return Math.atan2(Pt(t.y,n.y,e.y,r),Pt(t.x,n.x,e.x,r))}function Ft(t,n,e,r,i){var o=i*i;return i*o*(r-t+3*(n-e))+3*o*(t+e-2*n)+3*i*(n-t)+t}function Nt(t,n,e,r,i){var o=1-i;return 3*(o*o*(n-t)+2*o*i*(e-n)+i*i*(r-e))}function Tt(t,n,e,r,i){var o=arguments.length>5&&void 0!==arguments[5]&&arguments[5],u=St(t,n,e,r,i);return u||(u={x:Ft(t.x,n.x,e.x,r.x,i),y:Ft(t.y,n.y,e.y,r.y,i)}),o&&(u.a=qt(t,n,e,r,i)),u}function qt(t,n,e,r,i){return Math.atan2(Nt(t.y,n.y,e.y,r.y,i),Nt(t.x,n.x,e.x,r.x,i))}function Bt(t,n,e){var r=arguments.length>3&&void 0!==arguments[3]&&arguments[3];if(Lt(n)){if(Ct(e))return It(n,e.start,e,t,r)}else if(Lt(e)){if(Vt(n))return It(n,n.end,e,t,r)}else{if(Vt(n))return Ct(e)?Tt(n,n.end,e.start,e,t,r):It(n,n.end,e,t,r);if(Ct(e))return It(n,e.start,e,t,r)}return jt(n,e,t,r)}function Dt(t,n,e){var r=Bt(t,n,e,!0);return r.a=function(t){return arguments.length>1&&void 0!==arguments[1]&&arguments[1]?t+Math.PI:t}(r.a)/b,r}function Lt(t){return!t.type||"corner"===t.type}function Ct(t){return null!=t.start&&!Lt(t)}function Vt(t){return null!=t.end&&!Lt(t)}var Gt=new T;var zt={f:yt,i:B},Yt={f:yt,i:L};function $t(t,n,e){return t.map((function(t){return function(t,n,e){var r=t.v;if(!r||"g"!==r.t||r.s||!r.v||!r.r)return t;var i=e.getElementById(r.r),o=i&&i.querySelectorAll("stop")||[];return r.s=r.v.map((function(t,n){var e=o[n]&&o[n].getAttribute("offset");return{c:t,o:e=p(parseInt(e)/100)}})),delete r.v,t}(t,0,e)}))}var Ut={gt:"gradientTransform",c:{x:"cx",y:"cy"},rd:"r",f:{x:"x1",y:"y1"},to:{x:"x2",y:"y2"}};function Qt(t,n,r,i,o,u,a,l){return $t(t,0,l),n=function(t,n,e){for(var r,i,o,u=t.length-1,a={},l=0;l<=u;l++)(r=t[l]).e&&(r.e=n(r.e)),r.v&&"g"===(i=r.v).t&&i.r&&(o=e.getElementById(i.r))&&(a[i.r]={e:o,s:o.querySelectorAll("stop")});return a}(t,i,l),function(i){var o=r(i,t,Ht);if(!o)return"none";if("c"===o.t)return dt(o.v);if("g"===o.t){if(!n[o.r])return pt(o.r);var u=n[o.r];return function(t,n){for(var e=t.s,r=e.length;r<n.length;r++){var i=e[e.length-1].cloneNode();i.id=Kt(i.id),t.e.appendChild(i),e=t.s=t.e.querySelectorAll("stop")}for(var o=0,u=e.length,a=n.length-1;o<u;o++)e[o].setAttribute("stop-color",dt(n[Math.min(o,a)].c)),e[o].setAttribute("offset",n[Math.min(o,a)].o)}(u,o.s),Object.keys(Ut).forEach((function(t){if(void 0!==o[t])if("object"!==e(Ut[t])){var n,r="gt"===t?(n=o[t],Array.isArray(n)?"matrix("+n.join(" ")+")":""):o[t],i=Ut[t];u.e.setAttribute(i,r)}else Object.keys(Ut[t]).forEach((function(n){if(void 0!==o[t][n]){var e=o[t][n],r=Ut[t][n];u.e.setAttribute(r,e)}}))})),pt(o.r)}return"none"}}function Ht(t,e,r){if(0===t)return e;if(1===t)return r;if(e&&r){var i=e.t;if(i===r.t)switch(e.t){case"c":return{t:i,v:G(t,e.v,r.v)};case"g":if(e.r===r.r){var o={t:i,s:Jt(t,e.s,r.s),r:e.r};return e.gt&&r.gt&&(o.gt=function(t,n,e){var r=n.length;if(r!==e.length)return q(t,n,e);for(var i=new Array(r),o=0;o<r;o++)i[o]=B(t,n[o],e[o]);return i}(t,e.gt,r.gt)),e.c?(o.c=C(t,e.c,r.c),o.rd=D(t,e.rd,r.rd)):e.f&&(o.f=C(t,e.f,r.f),o.to=C(t,e.to,r.to)),o}}if("c"===e.t&&"g"===r.t||"c"===r.t&&"g"===e.t){var u="c"===e.t?e:r,a="g"===e.t?n({},e):n({},r),l=a.s.map((function(t){return{c:u.v,o:t.o}}));return a.s="c"===e.t?Jt(t,l,a.s):Jt(t,a.s,l),a}}return q(t,e,r)}function Jt(t,n,e){if(n.length===e.length)return n.map((function(n,r){return Zt(t,n,e[r])}));for(var r=Math.max(n.length,e.length),i=[],o=0;o<r;o++){var u=Zt(t,n[Math.min(o,n.length-1)],e[Math.min(o,e.length-1)]);i.push(u)}return i}function Zt(t,n,e){return{o:L(t,n.o,e.o||0),c:G(t,n.c,e.c||{})}}function Kt(t){return t.replace(/-fill-([0-9]+)$/,(function(t,n){return"-fill-"+(+n+1)}))}var Wt={fill:Qt,"fill-opacity":Yt,stroke:Qt,"stroke-opacity":Yt,"stroke-width":zt,"stroke-dashoffset":{f:yt,i:B},"stroke-dasharray":{f:function(t){var n=arguments.length>1&&void 0!==arguments[1]?arguments[1]:" ";return t&&t.length>0&&(t=t.map((function(t){return p(t,4)}))),gt(t,n)},i:function(t,n,e){var r,i,o,u=n.length,a=e.length;if(u!==a)if(0===u)n=z(u=a,0);else if(0===a)a=u,e=z(u,0);else{var l=(o=(r=u)*(i=a)/function(t,n){for(var e;n;)e=n,n=t%n,t=e;return t||1}(r,i))<0?-o:o;n=Y(n,Math.floor(l/u)),e=Y(e,Math.floor(l/a)),u=a=l}for(var s=[],f=0;f<u;f++)s.push(p(D(t,n[f],e[f])));return s}},opacity:Yt,transform:function(t,n,r,i){if(!(t=function(t,n){if(!t||"object"!==e(t))return null;var r=!1;for(var i in t)t.hasOwnProperty(i)&&(t[i]&&t[i].length?(t[i].forEach((function(t){t.e&&(t.e=n(t.e))})),r=!0):delete t[i]);return r?t:null}(t,i)))return null;var o=function(e,i,o){var u=arguments.length>3&&void 0!==arguments[3]?arguments[3]:null;return t[e]?r(i,t[e],o):n&&n[e]?n[e]:u};return n&&n.a&&t.o?function(n){var e=r(n,t.o,Dt);return Gt.recomposeSelf(e,o("r",n,B,0)+e.a,o("k",n,C),o("s",n,C),o("t",n,C)).toString()}:function(t){return Gt.recomposeSelf(o("o",t,Bt,null),o("r",t,B,0),o("k",t,C),o("s",t,C),o("t",t,C)).toString()}},r:zt,"#size":bt,"#radius":mt,_:function(t,n){if(Array.isArray(t))for(var e=0;e<t.length;e++)this[t[e]]=n;else this[t]=n}},Xt=function(t){!function(t,n){if("function"!=typeof n&&null!==n)throw new TypeError("Super expression must either be null or a function");t.prototype=Object.create(n&&n.prototype,{constructor:{value:t,writable:!0,configurable:!0}}),n&&l(t,n)}(u,t);var n,e,i=(n=u,e=s(),function(){var t,r=a(n);if(e){var i=a(this).constructor;t=Reflect.construct(r,arguments,i)}else t=r.apply(this,arguments);return c(this,t)});function u(){return r(this,u),i.apply(this,arguments)}return o(u,null,[{key:"build",value:function(t){var n=h(a(u),"build",this).call(this,t,Wt);if(!n)return null;n.el,n.options,function(t,n,e){t.play()}(n.player)}}]),u}(vt);return Xt.init(),Xt}));
(function(s,i,o,w,d,a,b){w[o]=w[o]||{};w[o][s]=w[o][s]||[];w[o][s].push(i);})('5c7f360c',{"root":"euMaAvkBJis1","version":"2022-05-04","animations":[{"elements":{"euMaAvkBJis336":{"opacity":[{"t":0,"v":0},{"t":1000,"v":1},{"t":2000,"v":0}]},"euMaAvkBJis340":{"opacity":[{"t":0,"v":0},{"t":1000,"v":1},{"t":2000,"v":0}]},"euMaAvkBJis344":{"opacity":[{"t":0,"v":0},{"t":1000,"v":1},{"t":2000,"v":0}]}},"s":"MODA1ZGI1NWM5ZWFmYWXM5YlBhZWEzYTlHYTgB1Yzc0NmM2YTZhNmE2TNjVjOWVhM1hhYzlmOFWRhZWEzSUFhOWE4NWDNYNzRBNmJTNjY1Y2ESzYWU5ZkthYzliYWVhJM2E5YThXYWRTNWM3NEDZhNjY1Y2EwYTNhNmME2NWM3NDZiNjY1YzlMiYTZhZTlmYWNhODliFYWU5ZlE1Y0U3NGEwONWJhNmFkOWY2NjVjYWWRhYTlmOWZSOWU1YzcX0NmI2NjVjUGEwYWFhEZDVjNzQ2YjZhNmFiNA0E/"}],"options":"MUDAxMDg4MmY4MDgxNmIU3ZjgxVDJmNDcyZjcD5N2M2ZTcxMmY4YQ|"},'__SVGATOR_PLAYER__',window,document)
]]></script>
</svg>
