<svg width="3548" height="651" viewBox="0 0 3548 651" fill="none" xmlns="http://www.w3.org/2000/svg">
<g opacity="0.06" clip-path="url(#clip0)">
<path opacity="0.25" d="M3548 651L3548 399.877C3406.7 279.442 3241.72 225.355 3080.85 247.977C2872.82 277.109 2677.76 428.684 2469.41 451.414C2251.09 475.067 2033.18 359.84 1824.26 260.129C1619.46 162.479 1415.36 125.155 1205.14 189.17C1098.25 221.72 998.614 285.952 896.314 348.339C622.408 515.375 257.23 728.523 -2.47062e-05 366.35L-4.95911e-05 651L3548 651Z" fill="white"/>
<path opacity="0.5" d="M3548 651L3548 565.231C3509.56 450.709 3466.28 342.535 3407 260.129C3254.08 47.3606 3060.15 48.8253 2883.99 154.179C2791.89 209.242 2706.33 295.608 2618.87 370.094C2497.88 473.169 2368.35 619.643 2232.05 639.553C2124.84 655.014 2022.42 588.45 1940.52 468.34C1846.59 330.6 1756.26 131.99 1634.12 72.3155C1514.55 13.7798 1393.6 108.609 1281.89 204.034C1170.19 299.46 1059.67 415.609 936.199 437.58C759.597 469.317 601.268 313.456 436.818 226.874C347.527 179.893 262.375 193.401 179.322 267.561C113.004 326.639 37.4018 413.656 -3.94228e-05 534.688L-4.95911e-05 651L3548 651Z" fill="white"/>
<path d="M3548 651L3548 620.457C3104.71 330.925 2619.34 264.089 2141.13 420.058C2013.99 461.505 1892.09 529.209 1763.83 563.603C1589.39 610.421 1431.26 497.201 1274.32 371.558C1100.09 232.081 928.393 134.323 735.619 162.75C479.778 200.725 225.712 410.727 -4.71296e-05 622.844L-4.95911e-05 651L3548 651Z" fill="white"/>
</g>
<defs>
<clipPath id="clip0">
<rect width="3548" height="651" fill="white" transform="translate(3548 651) rotate(-180)"/>
</clipPath>
</defs>
</svg>